ply
format ascii 1.0
comment VCGLIB generated
element vertex 204
property float x
property float y
property float z
property uchar red
property uchar green
property uchar blue
end_header
-0.0291434 0.0383017 0 255 0 0
-0.0242862 0.0385861 -0.00971448 255 0 0
-0.019429 0.0387634 -0.0145717 255 0 0
-0.0242862 0.0385861 -0.00971448 255 0 0
-0.019429 0.0386523 -0.00971448 255 0 0
-0.019429 0.0387634 -0.0145717 255 0 0
-0.0242862 0.0385861 -0.00971448 255 0 0
-0.0242862 0.038477 -0.00485724 255 0 0
-0.0291434 0.0383017 0 255 0 0
-0.0242862 0.038477 -0.00485724 255 0 0
-0.0242862 0.0383679 0 255 0 0
-0.0242862 0.0385861 -0.00971448 255 0 0
-0.0242862 0.038477 -0.00485724 255 0 0
-0.019429 0.0386523 -0.00971448 255 0 0
-0.019429 0.0385432 -0.00485724 255 0 0
-0.0242862 0.038477 -0.00485724 255 0 0
-0.0242862 0.0383679 0 255 0 0
-0.019429 0.0385432 -0.00485724 255 0 0
-0.019429 0.038434 0 255 0 0
-0.019429 0.0387634 -0.0145717 255 0 0
-0.0145717 0.0388404 -0.0145717 255 0 0
-0.019429 0.0386523 -0.00971448 255 0 0
-0.019429 0.0387634 -0.0145717 255 0 0
-0.0145717 0.0388404 -0.0145717 255 0 0
-0.0145717 0.0387274 -0.00971448 255 0 0
-0.0145717 0.0388404 -0.0145717 255 0 0
-0.00971448 0.0388051 -0.00971448 255 0 0
-0.0145717 0.0388404 -0.0145717 255 0 0
-0.0145717 0.0387274 -0.00971448 255 0 0
-0.019429 0.0386523 -0.00971448 255 0 0
-0.019429 0.0385432 -0.00485724 255 0 0
-0.0145717 0.0387274 -0.00971448 255 0 0
-0.0145717 0.0386144 -0.00485724 255 0 0
-0.019429 0.0385432 -0.00485724 255 0 0
-0.019429 0.038434 0 255 0 0
-0.0145717 0.0386144 -0.00485724 255 0 0
-0.0145717 0.0385014 0 255 0 0
-0.00971448 0.0388051 -0.00971448 255 0 0
-0.00971448 0.038702 -0.00485724 255 0 0
-0.0145717 0.0387274 -0.00971448 255 0 0
-0.0145717 0.0386144 -0.00485724 255 0 0
-0.00971448 0.038702 -0.00485724 255 0 0
-0.00971448 0.0385988 0 255 0 0
-0.0145717 0.0386144 -0.00485724 255 0 0
-0.0145717 0.0385014 0 255 0 0
-0.00971448 0.0388051 -0.00971448 255 0 0
-0.00971448 0.0388051 -0.00971448 255 0 0
-0.00971448 0.038702 -0.00485724 255 0 0
-0.00971448 0.038702 -0.00485724 255 0 0
-0.00971448 0.0385988 0 255 0 0
-0.00485724 0.0386985 0 255 0 0
-0.00485724 0.0386985 0 255 0 0
-0.00971448 0.0389174 -0.0145717 255 0 0
-0.00971448 0.0389174 -0.0145717 255 0 0
-0.00971448 0.0389174 -0.0145717 255 0 0
-0.00971448 0.0389174 -0.0145717 255 0 0
-0.0631441 0.0336556 0.00485724 255 0 0
-0.0631441 0.0336556 0.00485724 255 0 0
-0.0631441 0.0337898 0.00971448 255 0 0
-0.0631441 0.0336556 0.00485724 255 0 0
-0.0582869 0.0335339 0.00485724 255 0 0
-0.0631441 0.0336556 0.00485724 255 0 0
-0.0631441 0.0337898 0.00971448 255 0 0
-0.0582869 0.0335339 0.00485724 255 0 0
-0.0582869 0.0336681 0.00971448 255 0 0
-0.0631441 0.0337898 0.00971448 255 0 0
-0.0631441 0.0337898 0.00971448 255 0 0
-0.0582869 0.0336681 0.00971448 255 0 0
-0.0582869 0.0335339 0.00485724 255 0 0
-0.0582869 0.0335339 0.00485724 255 0 0
-0.0582869 0.0336681 0.00971448 255 0 0
-0.0582869 0.0336681 0.00971448 255 0 0
-0.0291434 0.0381403 0.00485724 255 0 0
-0.0291434 0.0383017 0 255 0 0
-0.0291434 0.0381403 0.00485724 255 0 0
-0.0291434 0.0381403 0.00485724 255 0 0
-0.0242862 0.0382076 0.00485724 255 0 0
-0.0291434 0.0383017 0 255 0 0
-0.0242862 0.0383679 0 255 0 0
-0.0291434 0.0381403 0.00485724 255 0 0
-0.0242862 0.0382076 0.00485724 255 0 0
-0.0242862 0.0380317 0.00971448 255 0 0
-0.0242862 0.0382076 0.00485724 255 0 0
-0.019429 0.0382748 0.00485724 255 0 0
-0.0242862 0.0383679 0 255 0 0
-0.019429 0.038434 0 255 0 0
-0.0242862 0.0382076 0.00485724 255 0 0
-0.0242862 0.0380317 0.00971448 255 0 0
-0.019429 0.0382748 0.00485724 255 0 0
-0.0242862 0.0380317 0.00971448 255 0 0
-0.0242862 0.0380317 0.00971448 255 0 0
-0.019429 0.0382748 0.00485724 255 0 0
-0.019429 0.038434 0 255 0 0
-0.0145717 0.0385014 0 255 0 0
-0.019429 0.0382748 0.00485724 255 0 0
-0.00971448 0.0385988 0 255 0 0
-0.0145717 0.0385014 0 255 0 0
-0.00971448 0.0385155 0.00485724 255 0 0
-0.00971448 0.0385155 0.00485724 255 0 0
-0.00971448 0.0384645 0.00971448 255 0 0
-0.00971448 0.0384645 0.00971448 255 0 0
-0.00971448 0.0384135 0.0145717 255 0 0
-0.00971448 0.0384135 0.0145717 255 0 0
-0.00971448 0.0385988 0 255 0 0
-0.00485724 0.0386985 0 255 0 0
-0.00971448 0.0385155 0.00485724 255 0 0
-0.00485724 0.038597 0.00485724 255 0 0
-0.00971448 0.0385155 0.00485724 255 0 0
-0.00971448 0.0384645 0.00971448 255 0 0
-0.00485724 0.038597 0.00485724 255 0 0
-0.00485724 0.0386985 0 255 0 0
-0.00485724 0.038597 0.00485724 255 0 0
-0.00485724 0.038597 0.00485724 255 0 0
-0.00971448 0.0384645 0.00971448 255 0 0
-0.00971448 0.0384135 0.0145717 255 0 0
-0.00971448 0.0384135 0.0145717 255 0 0
-0.00971448 0.0387556 0.0291434 255 0 0
-0.00971448 0.0387556 0.0291434 255 0 0
-0.00971448 0.0387556 0.0291434 255 0 0
-0.00971448 0.0387556 0.0291434 255 0 0
-0.0145717 0.0389904 0.0340007 255 0 0
-0.0145717 0.0389904 0.0340007 255 0 0
-0.0145717 0.0389904 0.0340007 255 0 0
-0.00971448 0.0390883 0.0340007 255 0 0
-0.0145717 0.0389904 0.0340007 255 0 0
-0.00971448 0.0390883 0.0340007 255 0 0
-0.00971448 0.0390883 0.0340007 255 0 0
-0.00485724 0.0391861 0.0340007 255 0 0
-0.00971448 0.0390883 0.0340007 255 0 0
-0.00485724 0.0391861 0.0340007 255 0 0
-0.00485724 0.0391861 0.0340007 255 0 0
-0.00485724 0.0391861 0.0340007 255 0 0
0.0462679 0.0777159 0.00971448 255 0 0
0.0462679 0.0777159 0.00971448 255 0 0
0.0463308 0.0777159 0.0145717 255 0 0
0.0463308 0.0777159 0.0145717 255 0 0
0.0363439 0.111717 0.00971448 255 0 0
0.0363439 0.111717 0.00971448 255 0 0
0.0363439 0.111717 0.00971448 255 0 0
0.0363084 0.111717 0.0145717 255 0 0
0.0363084 0.111717 0.0145717 255 0 0
0.036273 0.111717 0.019429 255 0 0
0.0363439 0.111717 0.00971448 255 0 0
0.0363084 0.111717 0.0145717 255 0 0
0.0363084 0.111717 0.0145717 255 0 0
0.036273 0.111717 0.019429 255 0 0
0.036273 0.111717 0.019429 255 0 0
0.036273 0.111717 0.019429 255 0 0
0.019429 0.126485 0.00485724 255 0 0
0.019429 0.126485 0.00485724 255 0 0
0.019429 0.126563 0.00971448 255 0 0
0.0145717 0.129258 0.0145717 255 0 0
0.0145717 0.129258 0.0145717 255 0 0
0.0145717 0.129258 0.0145717 255 0 0
0.019429 0.126563 0.00971448 255 0 0
0.0145717 0.129258 0.0145717 255 0 0
0.0242862 0.123945 0.00971448 255 0 0
0.0242862 0.123945 0.00971448 255 0 0
0.0242862 0.123945 0.00971448 255 0 0
0.0242862 0.123945 0.00971448 255 0 0
0.019429 0.126485 0.00485724 255 0 0
0.019429 0.126485 0.00485724 255 0 0
0.019429 0.126563 0.00971448 255 0 0
0.019429 0.126563 0.00971448 255 0 0
0.0462679 0.0777159 0.00971448 255 0 0
0.0461214 0.0825731 0.00971448 255 0 0
0.0461214 0.0825731 0.00971448 255 0 0
0.0458885 0.0874303 0.00971448 255 0 0
0.0462679 0.0777159 0.00971448 255 0 0
0.0463308 0.0777159 0.0145717 255 0 0
0.0461214 0.0825731 0.00971448 255 0 0
0.0459774 0.0825731 0.0145717 255 0 0
0.0463308 0.0777159 0.0145717 255 0 0
0.0459774 0.0825731 0.0145717 255 0 0
0.0455901 0.0825731 0.019429 255 0 0
0.0461214 0.0825731 0.00971448 255 0 0
0.0459774 0.0825731 0.0145717 255 0 0
0.0458885 0.0874303 0.00971448 255 0 0
0.0455012 0.0874303 0.0145717 255 0 0
0.0459774 0.0825731 0.0145717 255 0 0
0.0455901 0.0825731 0.019429 255 0 0
0.0455012 0.0874303 0.0145717 255 0 0
0.0451139 0.0874303 0.019429 255 0 0
0.0458885 0.0874303 0.00971448 255 0 0
0.0458885 0.0874303 0.00971448 255 0 0
0.0455012 0.0874303 0.0145717 255 0 0
0.0455012 0.0874303 0.0145717 255 0 0
0.0451139 0.0874303 0.019429 255 0 0
0.0446377 0.0922876 0.019429 255 0 0
0.0446377 0.0922876 0.019429 255 0 0
0.0455901 0.0825731 0.019429 255 0 0
0.0455901 0.0825731 0.019429 255 0 0
0.0451139 0.0874303 0.019429 255 0 0
0.0451139 0.0874303 0.019429 255 0 0
0.0446377 0.0922876 0.019429 255 0 0
0.0446377 0.0922876 0.019429 255 0 0
0.0395535 0.106859 0.00971448 255 0 0
0.0395535 0.106859 0.00971448 255 0 0
0.0395181 0.106859 0.0145717 255 0 0
0.0395181 0.106859 0.0145717 255 0 0
0.0395535 0.106859 0.00971448 255 0 0
0.0395535 0.106859 0.00971448 255 0 0
0.0395181 0.106859 0.0145717 255 0 0
0.0395181 0.106859 0.0145717 255 0 0
