ply
format ascii 1.0
comment VCGLIB generated
element vertex 468
property float x
property float y
property float z
property uchar red
property uchar green
property uchar blue
end_header
-0.0830037 0.106859 0 255 0 0
-0.0777159 0.106859 -0.00667141 255 0 0
-0.0830037 0.106859 0 255 0 0
-0.0777159 0.106859 -0.00667141 255 0 0
-0.0680014 0.0336405 0 255 0 0
-0.0582869 0.0388579 -0.00875967 255 0 0
-0.0680014 0.0336405 0 255 0 0
-0.0582869 0.0334267 0 255 0 0
-0.0388579 0.0338661 -0.019429 255 0 0
-0.0485724 0.0335625 -0.00971448 255 0 0
-0.0582869 0.0388579 -0.00875967 255 0 0
-0.0582869 0.0334267 0 255 0 0
-0.0485724 0.0335625 -0.00971448 255 0 0
-0.0485724 0.0334999 0 255 0 0
-0.0485724 0.0335625 -0.00971448 255 0 0
-0.0388579 0.0338661 -0.019429 255 0 0
-0.0485724 0.0335625 -0.00971448 255 0 0
-0.0485724 0.0334999 0 255 0 0
-0.0582869 0.0388579 -0.00875967 255 0 0
-0.0388579 0.0467772 -0.019429 255 0 0
-0.0582869 0.0388579 -0.00875967 255 0 0
-0.0388579 0.0467772 -0.019429 255 0 0
-0.0388579 0.0338661 -0.019429 255 0 0
-0.0388579 0.0338661 -0.019429 255 0 0
-0.0291434 0.0385032 -0.00971448 255 0 0
-0.0291434 0.0383017 0 255 0 0
-0.0291434 0.0385032 -0.00971448 255 0 0
-0.019429 0.0386523 -0.00971448 255 0 0
-0.0291434 0.0385032 -0.00971448 255 0 0
-0.0291434 0.0383017 0 255 0 0
-0.019429 0.0386523 -0.00971448 255 0 0
-0.019429 0.038434 0 255 0 0
-0.0291434 0.0385032 -0.00971448 255 0 0
-0.00971448 0.0341304 -0.019429 255 0 0
-0.00971448 0.0341304 -0.019429 255 0 0
-0.00971448 0.0388051 -0.00971448 255 0 0
-0.019429 0.0386523 -0.00971448 255 0 0
-0.00971448 0.0341304 -0.019429 255 0 0
-0.00971448 0.0388051 -0.00971448 255 0 0
-0.00971448 0.0385988 0 255 0 0
-0.019429 0.0386523 -0.00971448 255 0 0
-0.019429 0.038434 0 255 0 0
-0.00971448 0.0388051 -0.00971448 255 0 0
-0.00971448 0.0341304 -0.019429 255 0 0
-0.00971448 0.0388051 -0.00971448 255 0 0
-0.00971448 0.0385988 0 255 0 0
-0.0388579 0.0467772 -0.019429 255 0 0
-0.030319 0.0582869 -0.019429 255 0 0
-0.019429 0.0485724 -0.0294122 255 0 0
-0.019429 0.0485724 -0.0294122 255 0 0
-0.0388579 0.0467772 -0.019429 255 0 0
-0.030319 0.0582869 -0.019429 255 0 0
-0.030319 0.0582869 -0.019429 255 0 0
-0.030319 0.0582869 -0.019429 255 0 0
-0.019429 0.0485724 -0.0294122 255 0 0
-0.00971448 0.0582869 -0.0342165 255 0 0
-0.019429 0.0485724 -0.0294122 255 0 0
-0.00971448 0.0582869 -0.0342165 255 0 0
0 0.0391078 -0.00971448 255 0 0
0 0.0391078 -0.00971448 255 0 0
-0.00971448 0.0582869 -0.0342165 255 0 0
-0.00971448 0.0582869 -0.0342165 255 0 0
0 0.0777159 -0.0357611 255 0 0
-0.0680014 0.0874303 -0.0173101 255 0 0
-0.0680014 0.0874303 -0.0173101 255 0 0
-0.0680014 0.0874303 -0.0173101 255 0 0
-0.0680014 0.0874303 -0.0173101 255 0 0
-0.0777159 0.106859 -0.00667141 255 0 0
-0.0777159 0.106859 -0.00667141 255 0 0
-0.0680014 0.116574 -0.00876951 255 0 0
-0.0680014 0.116574 -0.00876951 255 0 0
-0.0388579 0.0971448 -0.0225129 255 0 0
-0.0388579 0.0971448 -0.0225129 255 0 0
-0.0680014 0.116574 -0.00876951 255 0 0
-0.0680014 0.126288 -0.00920848 255 0 0
-0.0680014 0.136003 -0.00832284 255 0 0
-0.0680014 0.126288 -0.00920848 255 0 0
-0.0582869 0.126288 -0.00758072 255 0 0
-0.0680014 0.116574 -0.00876951 255 0 0
-0.0680014 0.126288 -0.00920848 255 0 0
-0.0582869 0.126288 -0.00758072 255 0 0
-0.0680014 0.136003 -0.00832284 255 0 0
-0.0680014 0.126288 -0.00920848 255 0 0
-0.0620983 0.155432 -0.0291434 255 0 0
-0.0620983 0.155432 -0.0291434 255 0 0
-0.0680014 0.136003 -0.00832284 255 0 0
-0.0680014 0.136003 -0.00832284 255 0 0
-0.0582869 0.126288 -0.00758072 255 0 0
-0.0582869 0.126288 -0.00758072 255 0 0
-0.0388579 0.127174 0 255 0 0
-0.0485724 0.155432 -0.00619955 255 0 0
-0.0485724 0.155432 -0.00619955 255 0 0
-0.0388579 0.0971448 -0.0225129 255 0 0
-0.0388579 0.0971448 -0.0225129 255 0 0
0 0.0777159 -0.0357611 255 0 0
-0.00971448 0.0976801 -0.0291434 255 0 0
-0.00971448 0.0976801 -0.0291434 255 0 0
-0.00971448 0.106859 -0.0225457 255 0 0
-0.00971448 0.106859 -0.0225457 255 0 0
-0.00971448 0.0976801 -0.0291434 255 0 0
-0.00971448 0.0976801 -0.0291434 255 0 0
-0.00971448 0.106859 -0.0225457 255 0 0
-0.00971448 0.106859 -0.0225457 255 0 0
-0.0291434 0.119848 -0.00971448 255 0 0
-0.0291434 0.124041 0 255 0 0
-0.0291434 0.119848 -0.00971448 255 0 0
-0.0388579 0.127174 0 255 0 0
-0.0291434 0.119848 -0.00971448 255 0 0
-0.019429 0.120755 -0.00971448 255 0 0
-0.0291434 0.124041 0 255 0 0
-0.019429 0.125889 0 255 0 0
-0.0291434 0.119848 -0.00971448 255 0 0
-0.019429 0.120755 -0.00971448 255 0 0
-0.019429 0.120755 -0.00971448 255 0 0
-0.019429 0.125889 0 255 0 0
-0.019429 0.120755 -0.00971448 255 0 0
-0.00971448 0.128128 0 255 0 0
0 0.123511 -0.00971448 255 0 0
0 0.123511 -0.00971448 255 0 0
0 0.126288 -0.00719417 255 0 0
-0.00971448 0.128128 0 255 0 0
0 0.126288 -0.00719417 255 0 0
-0.0884775 0.0971448 0.00971448 255 0 0
-0.0884775 0.0971448 0.00971448 255 0 0
-0.0835472 0.0874303 0.0291434 255 0 0
-0.0835472 0.0874303 0.0291434 255 0 0
-0.0777159 0.0874303 0.0373653 255 0 0
-0.0844776 0.0971448 0.0291434 255 0 0
-0.0835472 0.0874303 0.0291434 255 0 0
-0.0844776 0.0971448 0.0291434 255 0 0
-0.0835472 0.0874303 0.0291434 255 0 0
-0.0777159 0.0971448 0.0361192 255 0 0
-0.0777159 0.0874303 0.0373653 255 0 0
-0.0884775 0.0971448 0.00971448 255 0 0
-0.0884775 0.0971448 0.00971448 255 0 0
-0.0830037 0.106859 0 255 0 0
-0.0830037 0.106859 0 255 0 0
-0.0844776 0.0971448 0.0291434 255 0 0
-0.0844776 0.0971448 0.0291434 255 0 0
-0.0777159 0.0971448 0.0361192 255 0 0
-0.092394 0.126288 0.00971448 255 0 0
-0.092394 0.126288 0.00971448 255 0 0
-0.092394 0.126288 0.00971448 255 0 0
-0.092394 0.126288 0.00971448 255 0 0
-0.0885618 0.136003 0.0388579 255 0 0
-0.0777159 0.1549 0.00971448 255 0 0
-0.0777159 0.1549 0.00971448 255 0 0
-0.0885618 0.136003 0.0388579 255 0 0
-0.0777159 0.14876 0.0388579 255 0 0
-0.0885618 0.136003 0.0388579 255 0 0
-0.0885618 0.136003 0.0388579 255 0 0
-0.0777159 0.14876 0.0388579 255 0 0
-0.0680014 0.0336405 0 255 0 0
-0.0680014 0.0336405 0 255 0 0
-0.0582869 0.0334267 0 255 0 0
-0.0582869 0.0336681 0.00971448 255 0 0
-0.0582869 0.0336681 0.00971448 255 0 0
-0.0582869 0.0346729 0.0388579 255 0 0
-0.0582869 0.0334267 0 255 0 0
-0.0582869 0.0336681 0.00971448 255 0 0
-0.0485724 0.0334999 0 255 0 0
-0.0582869 0.0336681 0.00971448 255 0 0
-0.0485724 0.0334999 0 255 0 0
-0.0485724 0.0343122 0.0291434 255 0 0
-0.0582869 0.0346729 0.0388579 255 0 0
-0.0485724 0.0343122 0.0291434 255 0 0
-0.0485724 0.0345151 0.0388579 255 0 0
-0.0485724 0.0343122 0.0291434 255 0 0
-0.0485724 0.0343122 0.0291434 255 0 0
-0.0485724 0.0345151 0.0388579 255 0 0
-0.0582869 0.0346729 0.0388579 255 0 0
-0.0582869 0.0346729 0.0388579 255 0 0
-0.0485724 0.0345151 0.0388579 255 0 0
-0.0485724 0.0345151 0.0388579 255 0 0
-0.0766592 0.0680014 0.00971448 255 0 0
-0.0766592 0.0680014 0.00971448 255 0 0
-0.0751254 0.0680014 0.019429 255 0 0
-0.0766592 0.0680014 0.00971448 255 0 0
-0.0766592 0.0680014 0.00971448 255 0 0
-0.0751254 0.0680014 0.019429 255 0 0
-0.0582869 0.0587643 0.019429 255 0 0
-0.0751254 0.0680014 0.019429 255 0 0
-0.0751254 0.0680014 0.019429 255 0 0
-0.0582869 0.0587643 0.019429 255 0 0
-0.0582869 0.0631919 0.0291434 255 0 0
-0.0582869 0.0631919 0.0291434 255 0 0
-0.0582869 0.0587643 0.019429 255 0 0
-0.0582869 0.0587643 0.019429 255 0 0
-0.0582869 0.0631919 0.0291434 255 0 0
-0.0582869 0.0631919 0.0291434 255 0 0
-0.0680014 0.0777159 0.0398854 255 0 0
-0.0680014 0.0777159 0.0398854 255 0 0
-0.0388579 0.0582869 0.0403391 255 0 0
-0.0388579 0.0582869 0.0403391 255 0 0
-0.0291434 0.0383017 0 255 0 0
-0.0291434 0.0383017 0 255 0 0
-0.019429 0.038434 0 255 0 0
-0.019429 0.0382036 0.00971448 255 0 0
-0.019429 0.0382036 0.00971448 255 0 0
-0.019429 0.0381672 0.019429 255 0 0
-0.019429 0.0385572 0.0291434 255 0 0
-0.019429 0.0381672 0.019429 255 0 0
-0.019429 0.0385572 0.0291434 255 0 0
-0.00971448 0.0385988 0 255 0 0
-0.019429 0.038434 0 255 0 0
-0.019429 0.0382036 0.00971448 255 0 0
-0.00971448 0.0384645 0.00971448 255 0 0
-0.019429 0.0382036 0.00971448 255 0 0
-0.019429 0.0381672 0.019429 255 0 0
-0.00971448 0.0383414 0.019429 255 0 0
-0.00971448 0.0384645 0.00971448 255 0 0
-0.00971448 0.0385988 0 255 0 0
-0.00971448 0.0384645 0.00971448 255 0 0
-0.00971448 0.0383414 0.019429 255 0 0
-0.00971448 0.0384645 0.00971448 255 0 0
-0.019429 0.0385572 0.0291434 255 0 0
-0.00971448 0.0387556 0.0291434 255 0 0
-0.019429 0.0381672 0.019429 255 0 0
-0.00971448 0.0383414 0.019429 255 0 0
-0.019429 0.0385572 0.0291434 255 0 0
-0.00971448 0.0387556 0.0291434 255 0 0
-0.00971448 0.0387556 0.0291434 255 0 0
-0.00971448 0.0383414 0.019429 255 0 0
-0.00971448 0.0387556 0.0291434 255 0 0
-0.019429 0.0349705 0.0485724 255 0 0
-0.019429 0.0349705 0.0485724 255 0 0
-0.019429 0.0349705 0.0485724 255 0 0
-0.019429 0.0349705 0.0485724 255 0 0
0 0.0388579 0.0469069 255 0 0
-0.0263984 0.0582869 0.0388579 255 0 0
-0.0263984 0.0582869 0.0388579 255 0 0
-0.0280743 0.0680014 0.0388579 255 0 0
-0.0280743 0.0680014 0.0388579 255 0 0
0 0.0389979 0.0291434 255 0 0
0 0.0389979 0.0291434 255 0 0
-0.0388579 0.0582869 0.0403391 255 0 0
-0.0263984 0.0582869 0.0388579 255 0 0
-0.0196618 0.0582869 0.0485724 255 0 0
-0.0196618 0.0582869 0.0485724 255 0 0
-0.0388579 0.0582869 0.0403391 255 0 0
-0.0263984 0.0582869 0.0388579 255 0 0
-0.0196618 0.0582869 0.0485724 255 0 0
-0.0280743 0.0680014 0.0388579 255 0 0
-0.0220621 0.0680014 0.0485724 255 0 0
-0.0196618 0.0582869 0.0485724 255 0 0
-0.0220621 0.0680014 0.0485724 255 0 0
-0.0280743 0.0680014 0.0388579 255 0 0
-0.0220621 0.0680014 0.0485724 255 0 0
-0.0220621 0.0680014 0.0485724 255 0 0
0 0.0388579 0.0469069 255 0 0
-0.00971448 0.0777159 0.0577653 255 0 0
-0.00971448 0.0777159 0.0577653 255 0 0
-0.0777159 0.0874303 0.0373653 255 0 0
-0.0746893 0.0971448 0.0388579 255 0 0
-0.0777159 0.0971448 0.0361192 255 0 0
-0.0777159 0.0874303 0.0373653 255 0 0
-0.0746893 0.0971448 0.0388579 255 0 0
-0.0777159 0.0971448 0.0361192 255 0 0
-0.0680014 0.0777159 0.0398854 255 0 0
-0.0746893 0.0971448 0.0388579 255 0 0
-0.0680014 0.0777159 0.0398854 255 0 0
-0.0746893 0.0971448 0.0388579 255 0 0
-0.0388579 0.0971448 0.0421712 255 0 0
-0.0388579 0.0971448 0.0421712 255 0 0
-0.0777159 0.1549 0.00971448 255 0 0
-0.0777159 0.1549 0.00971448 255 0 0
-0.0582869 0.154918 0.019429 255 0 0
-0.0680014 0.154655 0.0291434 255 0 0
-0.0680014 0.154655 0.0291434 255 0 0
-0.0777159 0.14876 0.0388579 255 0 0
-0.0680014 0.154655 0.0291434 255 0 0
-0.0582869 0.154918 0.019429 255 0 0
-0.0582869 0.153685 0.0291434 255 0 0
-0.0680014 0.154655 0.0291434 255 0 0
-0.0582869 0.153685 0.0291434 255 0 0
-0.0388579 0.127174 0 255 0 0
-0.0582869 0.154918 0.019429 255 0 0
-0.0582869 0.154918 0.019429 255 0 0
-0.0582869 0.153685 0.0291434 255 0 0
-0.0582869 0.153685 0.0291434 255 0 0
-0.0777159 0.14876 0.0388579 255 0 0
-0.0388579 0.0971448 0.0421712 255 0 0
-0.0388579 0.0971448 0.0421712 255 0 0
-0.00971448 0.0777159 0.0577653 255 0 0
-0.00971448 0.0777159 0.0577653 255 0 0
-0.00971448 0.116574 0.0389151 255 0 0
-0.00971448 0.116574 0.0389151 255 0 0
-0.0291434 0.124041 0 255 0 0
-0.0388579 0.127174 0 255 0 0
-0.0291434 0.124041 0 255 0 0
-0.019429 0.125889 0 255 0 0
-0.019429 0.127655 0.00971448 255 0 0
-0.019429 0.126728 0.019429 255 0 0
-0.019429 0.127655 0.00971448 255 0 0
-0.019429 0.1229 0.0291434 255 0 0
-0.019429 0.1229 0.0291434 255 0 0
-0.019429 0.126728 0.019429 255 0 0
-0.019429 0.125889 0 255 0 0
-0.00971448 0.130057 0.00971448 255 0 0
-0.019429 0.127655 0.00971448 255 0 0
-0.00971448 0.128128 0 255 0 0
-0.019429 0.126728 0.019429 255 0 0
-0.00971448 0.130057 0.00971448 255 0 0
-0.00971448 0.129596 0.019429 255 0 0
-0.019429 0.127655 0.00971448 255 0 0
0 0.131462 0.00971448 255 0 0
-0.00971448 0.130057 0.00971448 255 0 0
-0.00971448 0.128128 0 255 0 0
0 0.131462 0.00971448 255 0 0
0 0.130788 0.019429 255 0 0
-0.00971448 0.130057 0.00971448 255 0 0
-0.00971448 0.129596 0.019429 255 0 0
-0.019429 0.1229 0.0291434 255 0 0
-0.019429 0.1229 0.0291434 255 0 0
-0.019429 0.126728 0.019429 255 0 0
-0.00971448 0.129596 0.019429 255 0 0
0 0.130788 0.019429 255 0 0
-0.00971448 0.129596 0.019429 255 0 0
-0.00971448 0.116574 0.0389151 255 0 0
-0.00971448 0.116574 0.0389151 255 0 0
0.00971448 0.0343215 0 255 0 0
0.00971448 0.0343215 0 255 0 0
0 0.0391078 -0.00971448 255 0 0
0 0.0391078 -0.00971448 255 0 0
0 0.0777159 -0.0357611 255 0 0
0.019429 0.0777159 -0.0276564 255 0 0
0.019429 0.0777159 -0.0276564 255 0 0
0 0.0777159 -0.0357611 255 0 0
0.019429 0.0777159 -0.0276564 255 0 0
0.019429 0.116574 -0.0119547 255 0 0
0.0291434 0.0874303 -0.0212646 255 0 0
0.019429 0.0777159 -0.0276564 255 0 0
0.0291434 0.0874303 -0.0212646 255 0 0
0.0291434 0.0874303 -0.0212646 255 0 0
0.0291434 0.0874303 -0.0212646 255 0 0
0.019429 0.116574 -0.0119547 255 0 0
0.0384941 0.106859 0 255 0 0
0.0384941 0.106859 0 255 0 0
0 0.123511 -0.00971448 255 0 0
0 0.123511 -0.00971448 255 0 0
0 0.126288 -0.00719417 255 0 0
0 0.126288 -0.00719417 255 0 0
0.019429 0.116574 -0.0119547 255 0 0
0.019429 0.125447 0 255 0 0
0.019429 0.116574 -0.0119547 255 0 0
0.0291434 0.118218 0 255 0 0
0.019429 0.125447 0 255 0 0
0.0291434 0.118218 0 255 0 0
0.00971448 0.0343215 0 255 0 0
0.00971448 0.0343215 0 255 0 0
0.019429 0.0352708 0.0291434 255 0 0
0.019429 0.0352708 0.0291434 255 0 0
0.0388579 0.0380707 0.00971448 255 0 0
0.0388579 0.0380707 0.00971448 255 0 0
0.019429 0.0352708 0.0291434 255 0 0
0.019429 0.0352708 0.0291434 255 0 0
0 0.0388579 0.0469069 255 0 0
0 0.0389979 0.0291434 255 0 0
0 0.0389979 0.0291434 255 0 0
0.0388579 0.0393673 0.019429 255 0 0
0.0388579 0.0393673 0.019429 255 0 0
0.0349783 0.0777159 0.0388579 255 0 0
0 0.0388579 0.0469069 255 0 0
0.019429 0.0777159 0.0517288 255 0 0
0.019429 0.0777159 0.0517288 255 0 0
0.0349783 0.0777159 0.0388579 255 0 0
0.0388579 0.0380707 0.00971448 255 0 0
0.0388579 0.0380707 0.00971448 255 0 0
0.0388579 0.0393673 0.019429 255 0 0
0.0388579 0.0393673 0.019429 255 0 0
0.0462679 0.0777159 0.00971448 255 0 0
0.0462679 0.0777159 0.00971448 255 0 0
0.0458335 0.0777159 0.019429 255 0 0
0.0458335 0.0777159 0.019429 255 0 0
0.0588553 0.0582869 0.019429 255 0 0
0.0588553 0.0582869 0.019429 255 0 0
0.0588553 0.0582869 0.019429 255 0 0
0.0588553 0.0582869 0.019429 255 0 0
0.0349783 0.0777159 0.0388579 255 0 0
0.0349729 0.0874303 0.0388579 255 0 0
0.0349729 0.0874303 0.0388579 255 0 0
0.0384941 0.106859 0 255 0 0
0.0384941 0.106859 0 255 0 0
0.0329614 0.116574 0.00971448 255 0 0
0.0388579 0.107912 0.00971448 255 0 0
0.0329614 0.116574 0.00971448 255 0 0
0.0388579 0.107912 0.00971448 255 0 0
0.0287325 0.116574 0.0291434 255 0 0
0.0287325 0.116574 0.0291434 255 0 0
0.019429 0.0777159 0.0517288 255 0 0
0.019429 0.0777159 0.0517288 255 0 0
0.0349783 0.0777159 0.0388579 255 0 0
0.0349729 0.0874303 0.0388579 255 0 0
0.0349729 0.0874303 0.0388579 255 0 0
0 0.131462 0.00971448 255 0 0
0.00971448 0.130845 0.00971448 255 0 0
0 0.131462 0.00971448 255 0 0
0.00971448 0.130845 0.00971448 255 0 0
0 0.130788 0.019429 255 0 0
0.00971448 0.130605 0.019429 255 0 0
0.019429 0.125447 0 255 0 0
0.00971448 0.130845 0.00971448 255 0 0
0.019429 0.126563 0.00971448 255 0 0
0.019429 0.127123 0.019429 255 0 0
0.00971448 0.130845 0.00971448 255 0 0
0.019429 0.126563 0.00971448 255 0 0
0.00971448 0.130605 0.019429 255 0 0
0.00971448 0.126122 0.0291434 255 0 0
0.00971448 0.126122 0.0291434 255 0 0
0 0.130788 0.019429 255 0 0
0.00971448 0.130605 0.019429 255 0 0
0.00971448 0.126122 0.0291434 255 0 0
0.00971448 0.126122 0.0291434 255 0 0
0.019429 0.127123 0.019429 255 0 0
0.00971448 0.130605 0.019429 255 0 0
0.0291434 0.118218 0 255 0 0
0.0291434 0.121299 0.00971448 255 0 0
0.0199378 0.126288 0.00971448 255 0 0
0.019429 0.125447 0 255 0 0
0.0291434 0.121299 0.00971448 255 0 0
0.0199378 0.126288 0.00971448 255 0 0
0.0199378 0.126288 0.00971448 255 0 0
0.019429 0.126563 0.00971448 255 0 0
0.019429 0.127123 0.019429 255 0 0
0.0199378 0.126288 0.00971448 255 0 0
0.019429 0.126563 0.00971448 255 0 0
0.0329614 0.116574 0.00971448 255 0 0
0.0291434 0.118218 0 255 0 0
0.0291434 0.121299 0.00971448 255 0 0
0.0329614 0.116574 0.00971448 255 0 0
0.0291434 0.121299 0.00971448 255 0 0
0.0287325 0.116574 0.0291434 255 0 0
0.0287325 0.116574 0.0291434 255 0 0
0.019429 0.127123 0.019429 255 0 0
0.0462679 0.0777159 0.00971448 255 0 0
0.0458885 0.0874303 0.00971448 255 0 0
0.0462679 0.0777159 0.00971448 255 0 0
0.0458885 0.0874303 0.00971448 255 0 0
0.0451139 0.0874303 0.019429 255 0 0
0.0458335 0.0777159 0.019429 255 0 0
0.0440138 0.0971448 0.00971448 255 0 0
0.0458885 0.0874303 0.00971448 255 0 0
0.0440138 0.0971448 0.00971448 255 0 0
0.0458885 0.0874303 0.00971448 255 0 0
0.0451139 0.0874303 0.019429 255 0 0
0.0432023 0.0971448 0.019429 255 0 0
0.0451139 0.0874303 0.019429 255 0 0
0.0418406 0.0874303 0.0291434 255 0 0
0.0458335 0.0777159 0.019429 255 0 0
0.0418406 0.0874303 0.0291434 255 0 0
0.0451139 0.0874303 0.019429 255 0 0
0.0418406 0.0874303 0.0291434 255 0 0
0.0432023 0.0971448 0.019429 255 0 0
0.0418406 0.0874303 0.0291434 255 0 0
0.0440138 0.0971448 0.00971448 255 0 0
0.0395535 0.106859 0.00971448 255 0 0
0.0440138 0.0971448 0.00971448 255 0 0
0.0432023 0.0971448 0.019429 255 0 0
0.0390164 0.106859 0.019429 255 0 0
0.0395535 0.106859 0.00971448 255 0 0
0.0395535 0.106859 0.00971448 255 0 0
0.0388579 0.107912 0.00971448 255 0 0
0.0390164 0.106859 0.019429 255 0 0
0.0395535 0.106859 0.00971448 255 0 0
0.0388579 0.107912 0.00971448 255 0 0
0.0432023 0.0971448 0.019429 255 0 0
0.0390164 0.106859 0.019429 255 0 0
0.0390164 0.106859 0.019429 255 0 0
