ply
format ascii 1.0
element vertex 660
property float x
property float y
property float z
property uchar red
property uchar green
property uchar blue
element face 1444
property list uchar int vertex_index
end_header
-2.90432 -1.85986 -1.90772 255 0 0
-1.85986 -2.90432 -1.90772 255 0 0
-1.84102 -1.84102 -2.97028 255 0 0
-2.21711 -2.21711 -2.27439 255 0 0
-3.04782 -2.05998 -1.25 255 0 0
-3.1592 -2.20034 -0.26 255 0 0
-2.05998 -3.04782 -1.25 255 0 0
-2.20034 -3.1592 -0.26 255 0 0
-2.60998 -2.60998 -1.25 255 0 0
-2.75034 -2.75034 -0.26 255 0 0
-3.40471 -0.73694 -1.84252 255 0 0
-2.86232 -1.23454 -2.37482 255 0 0
-2.98724 -1.43642 -2.08463 255 0 0
-2.91403 -0.914235 -2.43712 255 0 0
-3.21417 -0.917858 -2.04551 255 0 0
-3.43422 -0.364235 -1.89998 255 0 0
-3.44129 0.185765 -1.91865 255 0 0
-2.97598 -0.364235 -2.51298 255 0 0
-3.25098 -0.364235 -2.17498 255 0 0
-2.98305 0.185765 -2.5214 255 0 0
-3.25805 0.185765 -2.19365 255 0 0
-2.32513 -1.25969 -2.9386 255 0 0
-2.39577 -0.914235 -2.99607 255 0 0
-2.02031 -1.45151 -3.05076 255 0 0
-1.75405 -0.66831 -3.45772 255 0 0
-1.96812 -0.87668 -3.28229 255 0 0
-2.54702 -1.43045 -2.60262 255 0 0
-2.7689 -1.60121 -2.27439 255 0 0
-2.67077 -0.914235 -2.71212 255 0 0
-2.20769 -1.62635 -2.83042 255 0 0
-2.47024 -0.364235 -3.04681 255 0 0
-2.47731 0.185765 -3.05089 255 0 0
-1.78773 -0.364235 -3.47737 255 0 0
-2.06273 -0.364235 -3.32181 255 0 0
-1.79929 0.185765 -3.48468 255 0 0
-2.07429 0.185765 -3.32589 255 0 0
-2.74524 -0.364235 -2.78798 255 0 0
-2.75231 0.185765 -2.7964 255 0 0
-3.44612 -1.18923 -1.25 255 0 0
-3.65799 -1.18923 -0.26 255 0 0
-3.64997 -0.0892349 -1.25 255 0 0
-3.85093 -0.0892349 -0.26 255 0 0
-1.23454 -2.86232 -2.37482 255 0 0
-1.43642 -2.98724 -2.08463 255 0 0
-0.736943 -3.40471 -1.84252 255 0 0
-0.969235 -2.906 -2.42714 255 0 0
-0.963089 -3.19708 -2.05043 255 0 0
-1.25969 -2.32513 -2.9386 255 0 0
-1.45151 -2.02031 -3.05076 255 0 0
-0.969235 -2.38523 -2.98843 255 0 0
-0.668311 -1.75405 -3.45772 255 0 0
-0.928773 -1.97581 -3.26382 255 0 0
-1.43045 -2.54702 -2.60262 255 0 0
-1.60121 -2.7689 -2.27439 255 0 0
-1.62635 -2.20769 -2.83042 255 0 0
-0.969235 -2.66023 -2.70214 255 0 0
-0.364235 -3.43422 -1.89998 255 0 0
-0.364235 -2.97598 -2.51297 255 0 0
-0.364235 -3.25098 -2.17498 255 0 0
0.185765 -3.44129 -1.91865 255 0 0
0.185765 -2.98305 -2.5214 255 0 0
0.185765 -3.25805 -2.19365 255 0 0
-0.364235 -2.47024 -3.04681 255 0 0
-0.364235 -1.78773 -3.47737 255 0 0
-0.364235 -2.06273 -3.32181 255 0 0
0.185765 -2.47731 -3.05089 255 0 0
0.185765 -1.79929 -3.48468 255 0 0
0.185765 -2.07429 -3.32589 255 0 0
-0.364235 -2.74524 -2.78798 255 0 0
0.185765 -2.75231 -2.7964 255 0 0
-1.29923 -3.40817 -1.25 255 0 0
-1.32674 -3.61323 -0.2875 255 0 0
-0.0892349 -3.64997 -1.25 255 0 0
-0.0892349 -3.8508 -0.333333 255 0 0
-1.29923 -1.18923 -3.43755 255 0 0
-1.29923 -0.0892349 -3.63257 255 0 0
-0.0892349 -1.18923 -3.66877 255 0 0
-0.0892349 -0.0892349 -3.86106 255 0 0
-3.41531 -1.79041 0.62318 255 0 0
-2.98464 -2.43721 0.73 255 0 0
-2.92057 -2.37057 1.10999 255 0 0
-3.28682 -1.97833 0.77402 255 0 0
-3.05894 -2.06211 1.26599 255 0 0
-2.93532 -1.90122 1.775 255 0 0
-2.86192 -1.78375 2.07438 255 0 0
-2.43721 -2.98464 0.73 255 0 0
-2.37057 -2.92057 1.10999 255 0 0
-1.79041 -3.41531 0.623182 255 0 0
-1.97833 -3.28682 0.774021 255 0 0
-2.06211 -3.05894 1.26599 255 0 0
-1.90122 -2.93532 1.775 255 0 0
-1.78375 -2.86192 2.07438 255 0 0
-2.71221 -2.71221 0.73 255 0 0
-2.59897 -2.59897 1.29332 255 0 0
-2.82737 -2.27737 1.47666 255 0 0
-2.27737 -2.82737 1.47666 255 0 0
-2.46823 -2.46823 1.775 255 0 0
-2.35643 -2.35642 2.10733 255 0 0
-2.74323 -2.17622 1.775 255 0 0
-2.52391 -1.96265 2.27419 255 0 0
-2.17622 -2.74323 1.775 255 0 0
-1.96265 -2.52391 2.27419 255 0 0
-2.14156 -2.14156 2.474 255 0 0
-1.95806 -1.95806 2.77028 255 0 0
-3.52086 -1.52235 0.77402 255 0 0
-3.46798 -1.34378 1.225 255 0 0
-3.73858 -0.914235 0.73 255 0 0
-3.59583 -0.914235 1.225 255 0 0
-3.3853 -1.73152 0.940251 255 0 0
-3.32786 -1.61878 1.225 255 0 0
-3.40475 -1.21968 1.53846 255 0 0
-3.43977 -0.914235 1.63573 255 0 0
-3.20576 -1.4275 1.74307 255 0 0
-2.94332 -1.46423 2.1619 255 0 0
-3.32172 -0.914235 1.91073 255 0 0
-3.00926 -0.884705 2.34489 255 0 0
-3.82576 -0.364235 0.73 255 0 0
-3.68849 -0.364235 1.225 255 0 0
-3.8399 0.185765 0.73 255 0 0
-3.70262 0.185765 1.225 255 0 0
-3.47265 -0.332924 1.80551 255 0 0
-3.39549 -0.128716 2.05745 255 0 0
-3.47831 0.190148 1.82045 255 0 0
-3.39549 0.00973697 2.05745 255 0 0
-3.36645 -0.495383 2.00919 255 0 0
-3.18106 -0.332923 2.27447 255 0 0
-3.37587 0.376404 2.03408 255 0 0
-3.19236 0.190148 2.27447 255 0 0
-2.68754 -1.46423 2.4369 255 0 0
-2.78481 -1.04835 2.54149 255 0 0
-2.84596 -0.681685 2.60801 255 0 0
-2.85639 -0.0892349 2.62044 255 0 0
-2.31053 -1.10471 2.8816 255 0 0
-2.28924 -0.0892349 3.06432 255 0 0
-1.55011 -3.50169 0.805189 255 0 0
-1.34378 -3.46798 1.225 255 0 0
-1.73152 -3.3853 0.940252 255 0 0
-1.61878 -3.32786 1.225 255 0 0
-0.953521 -3.7217 0.792857 255 0 0
-0.969235 -3.58601 1.225 255 0 0
-1.21968 -3.40475 1.53846 255 0 0
-1.4275 -3.20576 1.74307 255 0 0
-1.46423 -2.94332 2.1619 255 0 0
-0.969235 -3.43432 1.62012 255 0 0
-0.969235 -3.31505 1.89512 255 0 0
-0.935462 -3.00994 2.32695 255 0 0
-1.46423 -2.68754 2.4369 255 0 0
-1.08358 -2.77801 2.53417 255 0 0
-0.364235 -3.81956 0.766667 255 0 0
-0.364235 -3.68849 1.225 255 0 0
0.185765 -3.8337 0.766667 255 0 0
0.185765 -3.70262 1.225 255 0 0
-0.332924 -3.47265 1.80551 255 0 0
-0.128717 -3.39549 2.05745 255 0 0
-0.495384 -3.36645 2.00918 255 0 0
-0.332924 -3.18106 2.27447 255 0 0
0.190148 -3.47831 1.82045 255 0 0
0.00973599 -3.39549 2.05745 255 0 0
0.376403 -3.37587 2.03408 255 0 0
0.190148 -3.19236 2.27447 255 0 0
-0.681689 -2.84596 2.60801 255 0 0
-1.16652 -2.22919 2.92308 255 0 0
-0.0892349 -2.85639 2.62044 255 0 0
-0.150346 -2.22812 3.10975 255 0 0
-1.70765 -1.70765 3.13694 255 0 0
-1.50029 -1.50029 3.30398 255 0 0
-1.43213 -0.904172 3.55317 255 0 0
-0.904172 -1.43213 3.55317 255 0 0
-1.0808 -1.0808 3.65518 255 0 0
-1.23217 -0.723492 3.71475 255 0 0
-0.723492 -1.23217 3.71475 255 0 0
-0.924573 -0.924573 3.74277 255 0 0
-1.5595 -0.364235 3.60237 255 0 0
-1.58223 0.185765 3.60968 255 0 0
-1.30355 -0.364235 3.72936 255 0 0
-1.33083 0.185765 3.73225 255 0 0
-0.914235 -0.364235 3.81755 255 0 0
-0.914235 0.185765 3.82676 255 0 0
-0.419235 -1.55189 3.59921 255 0 0
0.216321 -1.56139 3.61971 255 0 0
-0.39479 -1.28663 3.73262 255 0 0
-0.364235 -0.914235 3.81755 255 0 0
0.216321 -1.31694 3.73584 255 0 0
0.185765 -0.914235 3.82676 255 0 0
-0.364235 -0.364235 3.89643 255 0 0
-0.364235 0.185765 3.90989 255 0 0
0.185765 -0.364235 3.90989 255 0 0
0.185765 0.185765 3.92343 255 0 0
-3.41413 0.617963 -1.86741 255 0 0
-2.94383 0.735765 -2.46999 255 0 0
-3.25043 0.775084 -2.06045 255 0 0
-2.89263 1.11556 -2.40741 255 0 0
-3.03603 1.29364 -2.10419 255 0 0
-2.93464 1.74088 -1.94031 255 0 0
-2.42557 0.735765 -3.01822 255 0 0
-2.35544 1.14071 -2.96269 255 0 0
-1.76947 0.549331 -3.46745 255 0 0
-1.97737 0.733905 -3.30948 255 0 0
-2.05291 1.30873 -3.08944 255 0 0
-2.70057 0.735765 -2.74499 255 0 0
-2.57733 1.31147 -2.63908 255 0 0
-2.79922 1.48223 -2.30697 255 0 0
-2.26203 1.50737 -2.87075 255 0 0
-1.89536 1.72204 -2.99487 255 0 0
-2.40383 1.83577 -2.47163 255 0 0
-2.70898 1.88884 -2.10419 255 0 0
-2.29871 2.12024 -2.35809 255 0 0
-2.43143 2.25296 -2.075 255 0 0
-2.05291 1.87753 -2.76601 255 0 0
-2.01424 2.24724 -2.47945 255 0 0
-2.06731 2.54802 -2.12301 255 0 0
-3.50572 1.01077 -1.25 255 0 0
-3.71759 1.01077 -0.26 255 0 0
-3.09329 1.97075 -1.25 255 0 0
-3.1207 2.23759 -0.361343 255 0 0
-2.69922 2.52075 -1.25 255 0 0
-2.83909 2.66062 -0.699718 255 0 0
-1.91935 2.78535 -1.97168 255 0 0
-2.8399 2.66143 -0.0710659 255 0 0
-2.14922 2.95858 -1.25 255 0 0
-2.41606 2.9759 -0.361343 255 0 0
-1.51176 0.753415 -3.548 255 0 0
-1.69095 0.915998 -3.42485 255 0 0
-1.32428 1.16342 -3.51311 255 0 0
-1.49026 1.32236 -3.37422 255 0 0
-0.944791 0.766321 -3.75129 255 0 0
-0.98715 1.30859 -3.57291 255 0 0
-1.16111 1.52626 -3.43574 255 0 0
-1.52863 1.86087 -3.10407 255 0 0
-1.37067 2.21808 -2.95841 255 0 0
-0.785065 1.63507 -3.4887 255 0 0
-0.968779 1.80129 -3.34966 255 0 0
-0.944791 2.31658 -3.03449 255 0 0
-1.71718 2.08871 -2.88118 255 0 0
-1.53424 2.42804 -2.65998 255 0 0
-1.71796 2.64992 -2.33835 255 0 0
-0.969235 2.571 -2.80225 255 0 0
-0.364235 0.735765 -3.84598 255 0 0
-0.364235 1.28577 -3.70304 255 0 0
0.185765 0.735765 -3.85527 255 0 0
0.185765 1.28577 -3.71648 255 0 0
-0.364235 1.6985 -3.52638 255 0 0
-0.364235 1.9735 -3.37334 255 0 0
-0.352216 2.43015 -3.06678 255 0 0
0.185765 1.71006 -3.5362 255 0 0
0.185765 1.98506 -3.37742 255 0 0
0.209438 2.4358 -3.07005 255 0 0
-0.527537 2.64307 -2.87891 255 0 0
0.408553 2.6525 -2.89014 255 0 0
-1.29923 2.92787 -2.16186 255 0 0
-0.16087 2.67211 -2.91352 255 0 0
0.041886 2.67211 -2.91352 255 0 0
-0.352216 2.84836 -2.66735 255 0 0
-0.364235 3.16175 -2.29158 255 0 0
-0.364235 3.34499 -2.01658 255 0 0
0.209438 2.85401 -2.67409 255 0 0
0.185765 3.16881 -2.3 255 0 0
0.185765 3.35206 -2.025 255 0 0
-1.26841 3.4544 -1.19279 255 0 0
-1.50645 3.58477 -0.2875 255 0 0
-0.797592 3.78585 -0.768913 255 0 0
-0.87885 3.79872 -0.333333 255 0 0
-0.0892349 3.60528 -1.37279 255 0 0
-0.0892349 3.80545 -0.822786 255 0 0
-0.0892349 3.8508 -0.333333 255 0 0
-3.76692 0.735765 0.73 255 0 0
-3.62964 0.735765 1.225 255 0 0
-3.61648 1.28577 0.73 255 0 0
-3.4838 1.28473 1.20923 255 0 0
-3.34165 1.46737 1.38205 255 0 0
-3.4594 0.735765 1.69203 255 0 0
-3.42149 1.1007 1.58863 255 0 0
-3.34742 0.735765 1.96703 255 0 0
-3.03547 0.741931 2.36445 255 0 0
-3.25704 1.28473 1.77318 255 0 0
-2.98468 1.28577 2.21079 255 0 0
-3.44941 1.67887 0.73 255 0 0
-3.41561 1.61254 1.01538 255 0 0
-3.30929 1.95387 0.73 255 0 0
-3.23586 1.81183 1.20923 255 0 0
-2.98964 2.4198 0.722882 255 0 0
-2.95821 2.2521 1.225 255 0 0
-2.97788 1.84317 1.77621 255 0 0
-2.89223 1.66477 2.10697 255 0 0
-2.88157 2.15839 1.59368 255 0 0
-2.81512 0.929376 2.57408 255 0 0
-2.73301 1.28577 2.48579 255 0 0
-2.79673 2.61826 0.866385 255 0 0
-2.70557 2.5271 1.225 255 0 0
-2.78258 2.03143 1.96034 255 0 0
-2.56881 1.84367 2.31587 255 0 0
-2.55972 2.38125 1.77701 255 0 0
-2.41591 2.23745 2.15809 255 0 0
-2.20105 2.02258 2.52476 255 0 0
-2.23258 2.60411 1.96034 255 0 0
-2.03348 2.40493 2.33155 255 0 0
-2.85538 0.562709 2.61924 255 0 0
-2.32872 0.961932 2.90894 255 0 0
-1.98837 1.83908 2.79487 255 0 0
-2.8399 2.66143 0.528209 255 0 0
-2.3222 2.90141 0.976728 255 0 0
-1.97019 2.82569 1.77168 255 0 0
-1.56584 2.57242 2.50501 255 0 0
-1.45032 0.761396 3.58325 255 0 0
-1.46423 1.28577 3.40261 255 0 0
-1.1403 0.961817 3.67977 255 0 0
-0.939874 1.28936 3.60348 255 0 0
-1.26627 0.611948 3.71837 255 0 0
-0.9692 0.790721 3.75364 255 0 0
-0.790433 1.12062 3.72185 255 0 0
-1.46423 1.98635 3.0693 255 0 0
-1.46423 1.71135 3.22414 255 0 0
-1.4152 2.38776 2.75871 255 0 0
-1.16871 2.10031 3.14455 255 0 0
-0.979612 1.86833 3.31266 255 0 0
-1.0058 2.35468 2.97488 255 0 0
-0.848561 2.1709 3.18472 255 0 0
-0.419235 1.46266 3.64771 255 0 0
0.216321 1.48207 3.66551 255 0 0
-0.364235 0.735765 3.84598 255 0 0
-0.39479 1.20731 3.74593 255 0 0
0.185765 0.735765 3.85527 255 0 0
0.216321 1.23762 3.74914 255 0 0
-0.39479 1.80521 3.46265 255 0 0
-0.364235 2.51278 3.01933 255 0 0
-0.364235 2.23778 3.22334 255 0 0
0.185765 1.83577 3.46362 255 0 0
0.185765 2.51985 3.02775 255 0 0
0.185765 2.24485 3.22742 255 0 0
-1.7031 3.19236 1.45437 255 0 0
-1.49479 3.53524 0.766667 255 0 0
-1.49756 3.37848 1.25262 255 0 0
-0.937851 3.7218 0.818165 255 0 0
-0.969235 3.58601 1.225 255 0 0
-1.49756 3.13437 1.825 255 0 0
-1.4152 2.81846 2.32301 255 0 0
-1.33644 3.28577 1.675 255 0 0
-1.17403 3.20302 2.04167 255 0 0
-1.00948 3.02793 2.28173 255 0 0
-1.00948 3.33103 1.83269 255 0 0
-0.855397 3.24223 2.0875 255 0 0
-0.761122 3.78007 0.653371 255 0 0
-0.6061 3.75552 0.93558 255 0 0
-0.399354 3.68867 1.20922 255 0 0
0.185765 3.68165 1.28262 255 0 0
-0.364235 3.05686 2.41658 255 0 0
-0.364235 3.47642 1.775 255 0 0
-0.364235 3.2876 2.14158 255 0 0
0.185765 3.06393 2.425 255 0 0
0.185765 3.49055 1.775 255 0 0
0.185765 3.29467 2.15 255 0 0
-0.408134 3.8088 0.801685 255 0 0
-0.239433 3.78455 1.01536 255 0 0
0.185765 3.8337 0.766667 255 0 0
0.185765 3.78174 1.00762 255 0 0
-0.88773 2.71752 2.66764 255 0 0
-0.0892349 2.76715 2.72679 255 0 0
0.61796 -3.41413 -1.86741 255 0 0
0.790765 -2.93893 -2.46321 255 0 0
0.796508 -3.22761 -2.08677 255 0 0
1.11556 -2.89263 -2.40741 255 0 0
1.31385 -3.01169 -2.12591 255 0 0
0.790765 -2.41817 -3.01338 255 0 0
0.574634 -1.76515 -3.46496 255 0 0
0.775925 -1.96473 -3.30826 255 0 0
1.14071 -2.35544 -2.96269 255 0 0
1.30873 -2.05291 -3.08944 255 0 0
0.790765 -2.69317 -2.73821 255 0 0
1.31147 -2.57733 -2.63908 255 0 0
1.48223 -2.79922 -2.30697 255 0 0
1.50737 -2.26203 -2.87075 255 0 0
1.74088 -2.93464 -1.94031 255 0 0
1.72204 -1.89536 -2.99487 255 0 0
1.83577 -2.40383 -2.47163 255 0 0
1.88884 -2.70898 -2.10419 255 0 0
1.87753 -2.05291 -2.76601 255 0 0
2.12024 -2.29871 -2.35809 255 0 0
2.25296 -2.43143 -2.075 255 0 0
2.24724 -2.01424 -2.47945 255 0 0
2.54802 -2.06731 -2.12301 255 0 0
1.12077 -3.47404 -1.25 255 0 0
1.14827 -3.68067 -0.2875 255 0 0
1.97075 -3.09329 -1.25 255 0 0
2.23759 -3.1207 -0.361343 255 0 0
2.52075 -2.69922 -1.25 255 0 0
2.66062 -2.83909 -0.699718 255 0 0
0.775925 -1.49427 -3.55151 255 0 0
0.915997 -1.69095 -3.42485 255 0 0
0.766321 -0.944791 -3.75129 255 0 0
1.16342 -1.32428 -3.51311 255 0 0
1.32236 -1.49026 -3.37422 255 0 0
1.34462 -0.968698 -3.56365 255 0 0
1.53009 -1.15173 -3.43732 255 0 0
0.735765 -0.364235 -3.84598 255 0 0
0.735765 0.185765 -3.85527 255 0 0
1.34076 -0.364235 -3.68298 255 0 0
1.34077 0.185765 -3.69767 255 0 0
1.87753 -1.506 -3.10605 255 0 0
1.63507 -0.785066 -3.4887 255 0 0
1.82535 -0.946733 -3.34343 255 0 0
2.20615 -1.35051 -2.97789 255 0 0
2.30654 -0.914235 -3.0513 255 0 0
2.08871 -1.71718 -2.88118 255 0 0
2.42804 -1.53424 -2.65998 255 0 0
2.64992 -1.71796 -2.33835 255 0 0
2.58154 -0.914235 -2.81327 255 0 0
1.6985 -0.364235 -3.52638 255 0 0
1.9735 -0.364235 -3.37334 255 0 0
1.71006 0.185765 -3.5362 255 0 0
1.98506 0.185765 -3.37742 255 0 0
2.43015 -0.352213 -3.06678 255 0 0
2.4358 0.20944 -3.07005 255 0 0
2.64307 -0.527532 -2.87891 255 0 0
2.6525 0.408557 -2.89014 255 0 0
2.78534 -1.91935 -1.97168 255 0 0
2.66143 -2.8399 -0.0710659 255 0 0
2.95858 -2.14922 -1.25 255 0 0
2.9759 -2.41606 -0.361343 255 0 0
2.94792 -1.18923 -2.18794 255 0 0
2.67211 -0.160866 -2.91352 255 0 0
2.67211 0.0418904 -2.91352 255 0 0
2.84836 -0.352213 -2.66735 255 0 0
3.16174 -0.364235 -2.29158 255 0 0
2.85401 0.20944 -2.67409 255 0 0
3.16881 0.185765 -2.3 255 0 0
3.34499 -0.364235 -2.01658 255 0 0
3.35206 0.185765 -2.025 255 0 0
3.494 -1.17425 -1.18135 255 0 0
3.61997 -1.42927 -0.26 255 0 0
3.60528 -0.0892349 -1.37279 255 0 0
3.78585 -0.797592 -0.768914 255 0 0
3.79878 -0.879266 -0.26 255 0 0
3.80545 -0.0892349 -0.822786 255 0 0
3.85093 -0.0892349 -0.26 255 0 0
0.735765 -3.76072 0.766667 255 0 0
0.735765 -3.62964 1.225 255 0 0
1.35452 -3.58743 0.74375 255 0 0
1.32688 -3.46807 1.2068 255 0 0
1.46737 -3.34165 1.38205 255 0 0
0.735765 -3.4594 1.69203 255 0 0
0.735765 -3.34742 1.96703 255 0 0
0.766369 -3.01763 2.37879 255 0 0
1.1264 -3.41688 1.57597 255 0 0
1.32688 -3.24649 1.75244 255 0 0
1.31077 -2.95947 2.2254 255 0 0
0.94972 -2.81211 2.57083 255 0 0
1.28577 -2.73301 2.48579 255 0 0
1.67887 -3.44941 0.73 255 0 0
1.61254 -3.41561 1.01538 255 0 0
1.95387 -3.30929 0.73 255 0 0
1.81183 -3.23586 1.20923 255 0 0
2.4198 -2.98964 0.722882 255 0 0
2.2521 -2.95821 1.225 255 0 0
1.84317 -2.97788 1.77621 255 0 0
1.66477 -2.89223 2.10697 255 0 0
2.15839 -2.88157 1.59368 255 0 0
2.61826 -2.79673 0.866385 255 0 0
2.5271 -2.70557 1.225 255 0 0
2.03143 -2.78258 1.96034 255 0 0
1.84367 -2.56881 2.31587 255 0 0
2.02258 -2.20105 2.52476 255 0 0
2.38125 -2.55972 1.77701 255 0 0
2.23745 -2.41591 2.15809 255 0 0
2.60411 -2.23258 1.96034 255 0 0
2.40493 -2.03348 2.33155 255 0 0
0.562705 -2.85538 2.61924 255 0 0
1.06174 -2.29276 2.90617 255 0 0
1.83908 -1.98837 2.79487 255 0 0
2.57242 -1.56584 2.50501 255 0 0
0.78287 -1.42968 3.58902 255 0 0
0.961817 -1.1403 3.67977 255 0 0
1.28577 -1.46423 3.40261 255 0 0
1.28936 -0.939874 3.60348 255 0 0
0.611948 -1.26627 3.71837 255 0 0
0.790721 -0.9692 3.75364 255 0 0
1.12062 -0.790433 3.72185 255 0 0
1.47026 -0.364235 3.65138 255 0 0
1.49299 0.185765 3.6612 255 0 0
0.735765 -0.364235 3.84598 255 0 0
0.735765 0.185765 3.85527 255 0 0
1.23216 -0.364235 3.74133 255 0 0
1.25944 0.185765 3.74423 255 0 0
1.98635 -1.46423 3.0693 255 0 0
1.71135 -1.46423 3.22414 255 0 0
2.10031 -1.16871 3.14455 255 0 0
1.88449 -0.95692 3.30992 255 0 0
2.38776 -1.4152 2.75871 255 0 0
2.37286 -0.95692 2.97735 255 0 0
2.18092 -0.802044 3.19051 255 0 0
1.83577 -0.364235 3.44971 255 0 0
1.83577 0.185765 3.46362 255 0 0
2.51278 -0.364235 3.01933 255 0 0
2.23778 -0.364235 3.22334 255 0 0
2.51985 0.185765 3.02775 255 0 0
2.24485 0.185765 3.22742 255 0 0
2.66143 -2.8399 0.528209 255 0 0
2.90141 -2.3222 0.976728 255 0 0
2.82569 -1.97019 1.77168 255 0 0
3.19236 -1.70311 1.45437 255 0 0
3.55681 -1.46423 0.73 255 0 0
3.37848 -1.49756 1.25262 255 0 0
3.73182 -0.925781 0.770786 255 0 0
3.59583 -0.914235 1.225 255 0 0
3.13437 -1.49756 1.825 255 0 0
2.81846 -1.4152 2.32301 255 0 0
3.20302 -1.17403 2.04167 255 0 0
3.02888 -0.960111 2.29625 255 0 0
3.28577 -1.33644 1.675 255 0 0
3.34461 -0.960111 1.825 255 0 0
3.24747 -0.807361 2.09375 255 0 0
3.75552 -0.606097 0.935579 255 0 0
3.68867 -0.399352 1.20922 255 0 0
3.68165 0.185765 1.28262 255 0 0
3.05686 -0.364235 2.41658 255 0 0
3.06393 0.185765 2.425 255 0 0
3.47642 -0.364235 1.775 255 0 0
3.2876 -0.364235 2.14158 255 0 0
3.49055 0.185765 1.775 255 0 0
3.29467 0.185765 2.15 255 0 0
3.78283 -0.778534 0.617173 255 0 0
3.8144 -0.404755 0.770786 255 0 0
3.78455 -0.23943 1.01536 255 0 0
3.8399 0.185765 0.73 255 0 0
3.78174 0.185765 1.00762 255 0 0
2.72698 -0.832509 2.67891 255 0 0
2.76715 -0.0892349 2.72679 255 0 0
0.766321 0.766321 -3.79045 255 0 0
0.790765 1.28577 -3.63563 255 0 0
1.31077 0.760765 -3.63289 255 0 0
1.24396 1.24396 -3.50962 255 0 0
1.39942 1.39942 -3.38613 255 0 0
0.790765 1.62468 -3.48633 255 0 0
0.790765 1.89968 -3.33688 255 0 0
0.790765 2.32893 -3.06188 255 0 0
1.03275 1.57197 -3.45584 255 0 0
1.24396 1.78749 -3.26705 255 0 0
1.28577 2.22925 -2.99421 255 0 0
0.790765 2.60393 -2.83832 255 0 0
1.28577 2.50425 -2.73173 255 0 0
1.63646 0.735765 -3.49323 255 0 0
1.91146 0.735765 -3.34222 255 0 0
1.57197 1.03275 -3.45584 255 0 0
1.78749 1.24396 -3.26705 255 0 0
2.33634 0.735765 -3.06722 255 0 0
2.22925 1.28577 -2.99421 255 0 0
2.61134 0.735765 -2.84614 255 0 0
2.50425 1.28577 -2.73173 255 0 0
1.80323 1.80323 -3.01001 255 0 0
1.5982 2.14305 -2.93194 255 0 0
2.14305 1.5982 -2.93194 255 0 0
1.96487 1.96487 -2.77551 255 0 0
1.78192 2.34473 -2.57322 255 0 0
1.96565 2.5464 -2.25242 255 0 0
2.34473 1.78192 -2.57322 255 0 0
2.5464 1.96565 -2.25242 255 0 0
2.17973 2.17973 -2.40885 255 0 0
2.35672 2.35672 -2.06909 255 0 0
2.53371 2.53371 -1.55007 255 0 0
1.12077 2.9608 -2.19793 255 0 0
1.80037 2.81566 -2.00427 255 0 0
1.11969 3.50458 -1.20573 255 0 0
1.3949 3.6416 -0.2875 255 0 0
0.678612 3.79527 -0.794802 255 0 0
0.789615 3.81285 -0.333333 255 0 0
2.14453 2.971 -1.21004 255 0 0
2.11077 3.20501 -0.26 255 0 0
2.97772 1.01077 -2.22081 255 0 0
2.81566 1.80037 -2.00427 255 0 0
3.53603 1.03147 -1.19688 255 0 0
3.66544 1.34003 -0.26 255 0 0
2.971 2.14453 -1.21004 255 0 0
3.20501 2.11077 -0.26 255 0 0
3.79527 0.678612 -0.794801 255 0 0
3.81292 0.790031 -0.26 255 0 0
2.72011 2.72011 -0.816737 255 0 0
2.75034 2.75034 -0.26 255 0 0
1.44686 2.60273 2.5376 255 0 0
2.60273 1.44686 2.5376 255 0 0
2.58454 2.58454 1.35007 255 0 0
2.22697 2.22697 2.17094 255 0 0
0.760765 1.3741 3.61939 255 0 0
1.38965 0.735765 3.61823 255 0 0
1.2371 1.2371 3.51868 255 0 0
0.766321 0.766321 3.79045 255 0 0
0.760765 1.1241 3.72209 255 0 0
1.1241 0.760765 3.72209 255 0 0
1.02132 1.02132 3.70436 255 0 0
0.790765 1.83577 3.37321 255 0 0
0.790765 2.45138 2.96332 255 0 0
0.790765 2.17638 3.18688 255 0 0
1.4164 2.01483 3.09861 255 0 0
1.25414 1.8332 3.24138 255 0 0
1.2483 2.36667 2.86832 255 0 0
1.04973 2.13062 3.16034 255 0 0
1.83577 0.735765 3.38545 255 0 0
2.01483 1.4164 3.09861 255 0 0
1.8332 1.25414 3.24138 255 0 0
2.46034 0.735765 2.97113 255 0 0
2.18534 0.735765 3.19222 255 0 0
2.36667 1.2483 2.86832 255 0 0
2.13062 1.04973 3.16034 255 0 0
1.86511 1.86511 2.91527 255 0 0
1.64816 1.64816 3.18613 255 0 0
1.7154 2.23606 2.73194 255 0 0
2.23606 1.7154 2.73194 255 0 0
0.853784 3.7359 0.881686 255 0 0
0.696576 3.65336 1.17688 255 0 0
1.29737 3.62026 0.744012 255 0 0
1.34076 3.44889 1.225 255 0 0
0.766321 2.99101 2.40579 255 0 0
0.735765 3.41758 1.775 255 0 0
0.735765 3.25818 2.10651 255 0 0
1.42171 3.13991 1.89617 255 0 0
1.26508 2.90081 2.31533 255 0 0
1.29527 3.26924 1.73197 255 0 0
1.0677 3.22542 2.06746 255 0 0
0.686779 3.77938 0.761265 255 0 0
0.487117 3.76494 0.961468 255 0 0
1.03977 3.76536 0.572529 255 0 0
2.09596 3.20322 0.931302 255 0 0
1.97968 3.14398 1.225 255 0 0
1.88898 3.33807 0.767825 255 0 0
1.70468 3.28409 1.225 255 0 0
2.34659 3.03358 0.767825 255 0 0
2.39503 2.83752 1.19004 255 0 0
2.15586 3.23374 0.611674 255 0 0
1.79478 3.01105 1.7377 255 0 0
1.83577 2.74725 2.14252 255 0 0
1.58413 3.22267 1.52951 255 0 0
2.19323 2.73926 1.775 255 0 0
2.1136 2.6636 2.05242 255 0 0
0.785747 2.7256 2.67727 255 0 0
3.7359 0.853787 0.881686 255 0 0
3.65336 0.696578 1.17688 255 0 0
3.64695 1.24015 0.733475 255 0 0
3.47176 1.28577 1.225 255 0 0
3.01902 0.735765 2.38151 255 0 0
3.13991 1.42171 1.89617 255 0 0
2.91803 1.25095 2.30399 255 0 0
3.41758 0.735765 1.775 255 0 0
3.25818 0.735765 2.10651 255 0 0
3.28321 1.25733 1.7377 255 0 0
3.22786 1.05505 2.07037 255 0 0
3.20322 2.09596 0.931301 255 0 0
3.14397 1.97968 1.225 255 0 0
3.03358 2.34659 0.767824 255 0 0
2.83752 2.39503 1.19004 255 0 0
3.33807 1.88898 0.767824 255 0 0
3.28409 1.70468 1.225 255 0 0
3.23374 2.15586 0.611673 255 0 0
3.01105 1.79478 1.7377 255 0 0
2.74725 1.83577 2.14252 255 0 0
2.73926 2.19323 1.775 255 0 0
2.6636 2.1136 2.05242 255 0 0
3.22267 1.58412 1.5295 255 0 0
3.78271 0.690549 0.733475 255 0 0
3.76494 0.48712 0.961469 255 0 0
3.76602 1.04391 0.547882 255 0 0
2.7364 0.713529 2.69014 255 0 0
2.71242 2.71242 0.678662 255 0 0
3 6 7 9
3 6 9 8
3 4 8 9
3 4 9 5
3 11 12 14
3 11 14 13
3 17 18 20
3 17 20 19
3 15 16 20
3 15 20 18
3 21 22 25
3 21 25 23
3 32 33 35
3 32 35 34
3 30 31 35
3 30 35 33
3 11 26 27
3 11 27 12
3 11 13 28
3 11 28 26
3 17 19 37
3 17 37 36
3 24 25 33
3 24 33 32
3 22 30 33
3 22 33 25
3 13 14 18
3 13 18 17
3 10 15 18
3 10 18 14
3 21 26 28
3 21 28 22
3 21 23 29
3 21 29 26
3 30 36 37
3 30 37 31
3 22 28 36
3 22 36 30
3 13 17 36
3 13 36 28
3 38 39 41
3 38 41 40
3 42 45 46
3 42 46 43
3 47 48 51
3 47 51 49
3 57 60 61
3 57 61 58
3 56 58 61
3 56 61 59
3 63 66 67
3 63 67 64
3 62 64 67
3 62 67 65
3 45 57 58
3 45 58 46
3 44 46 58
3 44 58 56
3 50 63 64
3 50 64 51
3 49 51 64
3 49 64 62
3 42 43 53
3 42 53 52
3 42 52 55
3 42 55 45
3 57 68 69
3 57 69 60
3 47 52 54
3 47 54 48
3 47 49 55
3 47 55 52
3 62 65 69
3 62 69 68
3 49 62 68
3 49 68 55
3 45 55 68
3 45 68 57
3 70 72 73
3 70 73 71
3 74 75 77
3 74 77 76
3 3 52 53
3 3 53 3
3 3 3 54
3 3 54 52
3 2 48 54
3 2 54 3
3 1 3 53
3 1 53 43
3 6 70 71
3 6 71 7
3 24 74 74
3 24 74 25
3 23 25 74
3 23 74 74
3 32 34 75
3 32 75 75
3 24 32 75
3 24 75 74
3 3 3 27
3 3 27 26
3 3 26 29
3 3 29 3
3 2 3 29
3 2 29 23
3 0 12 27
3 0 27 3
3 50 51 74
3 50 74 74
3 48 74 74
3 48 74 51
3 63 76 76
3 63 76 66
3 50 74 76
3 50 76 63
3 4 5 39
3 4 39 38
3 1 6 8
3 1 8 3
3 0 3 8
3 0 8 4
3 12 38 38
3 12 38 14
3 10 14 38
3 10 38 38
3 15 40 40
3 15 40 16
3 10 38 40
3 10 40 15
3 44 70 70
3 44 70 46
3 43 46 70
3 43 70 70
3 56 59 72
3 56 72 72
3 44 56 72
3 44 72 70
3 0 4 38
3 0 38 12
3 1 43 70
3 1 70 6
3 2 23 74
3 2 74 48
3 79 80 82
3 79 82 81
3 85 88 89
3 85 89 86
3 96 97 99
3 96 99 98
3 96 100 101
3 96 101 97
3 97 102 99
3 97 101 102
3 79 92 93
3 79 93 80
3 80 94 82
3 80 93 94
3 83 98 99
3 83 99 84
3 85 86 93
3 85 93 92
3 86 95 93
3 86 89 95
3 90 91 101
3 90 101 100
3 93 96 98
3 93 98 94
3 93 95 100
3 93 100 96
3 89 90 100
3 89 100 95
3 82 94 98
3 82 98 83
3 104 105 107
3 104 107 106
3 104 108 109
3 104 109 105
3 112 113 115
3 112 115 114
3 110 114 111
3 110 112 114
3 116 117 119
3 116 119 118
3 120 121 123
3 120 123 122
3 120 124 125
3 120 125 121
3 122 127 126
3 122 123 127
3 121 127 123
3 121 125 127
3 113 129 115
3 113 128 129
3 106 107 117
3 106 117 116
3 114 115 125
3 114 125 124
3 111 124 120
3 111 114 124
3 105 110 111
3 105 111 107
3 105 109 112
3 105 112 110
3 117 120 122
3 117 122 119
3 107 111 120
3 107 120 117
3 130 133 131
3 130 132 133
3 134 135 137
3 134 137 136
3 134 138 139
3 134 139 135
3 141 144 145
3 141 145 142
3 140 144 141
3 140 143 144
3 148 150 151
3 148 151 149
3 152 153 155
3 152 155 154
3 156 159 157
3 156 158 159
3 152 156 157
3 152 157 153
3 153 159 155
3 153 157 159
3 138 148 149
3 138 149 139
3 144 154 155
3 144 155 145
3 143 154 144
3 143 152 154
3 142 147 146
3 142 145 147
3 135 140 141
3 135 141 137
3 135 139 143
3 135 143 140
3 149 151 156
3 149 156 152
3 139 149 152
3 139 152 143
3 160 163 161
3 160 162 163
3 165 168 166
3 165 167 168
3 174 177 175
3 174 176 177
3 180 183 181
3 180 182 183
3 184 187 185
3 184 186 187
3 170 181 171
3 170 180 181
3 176 185 177
3 176 184 185
3 169 176 174
3 169 171 176
3 181 186 184
3 181 183 186
3 167 170 171
3 167 171 168
3 166 168 171
3 166 171 169
3 172 174 175
3 172 175 173
3 178 179 182
3 178 182 180
3 166 169 174
3 166 174 172
3 167 178 180
3 167 180 170
3 171 184 176
3 171 181 184
3 88 136 137
3 88 137 89
3 87 136 88
3 87 134 136
3 90 141 142
3 90 142 91
3 89 137 141
3 89 141 90
3 91 146 101
3 91 142 146
3 132 164 165
3 132 165 132
3 132 166 132
3 132 165 166
3 133 173 133
3 133 172 173
3 132 172 133
3 132 166 172
3 81 82 109
3 81 109 108
3 78 108 104
3 78 81 108
3 83 84 113
3 83 113 112
3 82 83 112
3 82 112 109
3 84 128 113
3 84 99 128
3 161 161 165
3 161 165 164
3 161 167 165
3 161 161 167
3 163 179 178
3 163 163 179
3 161 178 167
3 161 163 178
3 101 103 103
3 101 103 102
3 99 102 103
3 99 103 103
3 125 131 131
3 125 131 127
3 128 132 132
3 128 132 129
3 115 130 131
3 115 131 125
3 115 129 132
3 115 132 130
3 146 147 161
3 146 161 161
3 155 159 162
3 155 162 162
3 145 160 161
3 145 161 147
3 145 155 162
3 145 162 160
3 99 103 132
3 99 132 128
3 101 146 161
3 101 161 103
3 103 164 132
3 103 161 164
3 189 190 192
3 189 192 191
3 194 195 198
3 194 198 197
3 204 205 207
3 204 207 206
3 206 210 209
3 206 207 210
3 204 206 209
3 204 209 208
3 191 201 200
3 191 192 201
3 189 191 200
3 189 200 199
3 200 201 205
3 200 205 204
3 200 204 208
3 200 208 202
3 194 199 200
3 194 200 195
3 195 202 198
3 195 200 202
3 198 202 208
3 198 208 203
3 192 193 205
3 192 205 201
3 211 212 214
3 211 214 213
3 213 216 215
3 213 214 216
3 221 222 224
3 221 224 223
3 223 227 226
3 223 224 227
3 221 223 226
3 221 226 225
3 228 229 232
3 228 232 231
3 237 238 240
3 237 240 239
3 241 245 244
3 241 242 245
3 242 243 246
3 242 246 245
3 225 226 238
3 225 238 237
3 230 242 241
3 230 231 242
3 231 232 243
3 231 243 242
3 226 227 231
3 226 231 230
3 224 228 231
3 224 231 227
3 238 241 244
3 238 244 240
3 228 233 234
3 228 234 229
3 229 236 232
3 229 234 236
3 232 247 243
3 232 236 247
3 226 230 241
3 226 241 238
3 252 256 255
3 252 253 256
3 253 254 257
3 253 257 256
3 249 253 252
3 249 249 253
3 249 249 254
3 249 254 253
3 250 255 251
3 250 252 255
3 258 259 261
3 258 261 260
3 260 264 263
3 260 261 264
3 258 260 263
3 258 263 262
3 196 222 221
3 196 197 222
3 197 198 224
3 197 224 222
3 209 235 234
3 209 210 235
3 208 209 234
3 208 234 233
3 203 233 228
3 203 208 233
3 198 203 228
3 198 228 224
3 219 259 258
3 219 220 259
3 243 250 251
3 243 251 246
3 234 235 249
3 234 249 249
3 234 249 249
3 234 249 236
3 243 247 252
3 243 252 250
3 246 255 248
3 246 251 255
3 236 249 252
3 236 252 247
3 215 216 220
3 215 220 219
3 214 218 220
3 214 220 216
3 190 211 211
3 190 211 192
3 188 211 190
3 188 211 211
3 205 215 215
3 205 215 207
3 207 215 210
3 207 215 215
3 192 211 213
3 192 213 193
3 193 215 205
3 193 213 215
3 254 262 257
3 254 262 262
3 249 262 254
3 249 258 262
3 210 215 219
3 210 219 217
3 217 258 249
3 217 219 258
3 210 217 249
3 210 249 235
3 265 266 268
3 265 268 267
3 272 273 275
3 272 275 274
3 270 274 271
3 270 272 274
3 278 279 281
3 278 281 280
3 276 279 278
3 276 277 279
3 289 290 292
3 289 292 291
3 291 295 294
3 291 292 295
3 290 295 292
3 290 293 295
3 273 286 275
3 273 285 286
3 280 288 287
3 280 281 288
3 282 290 289
3 282 283 290
3 282 291 284
3 282 289 291
3 267 268 277
3 267 277 276
3 268 279 277
3 268 269 279
3 274 275 283
3 274 283 282
3 266 270 271
3 266 271 268
3 268 274 269
3 268 271 274
3 279 282 284
3 279 284 281
3 269 274 282
3 269 282 279
3 281 291 288
3 281 284 291
3 275 290 283
3 275 286 290
3 303 306 304
3 303 305 306
3 313 314 316
3 313 316 315
3 310 314 313
3 310 311 314
3 310 315 312
3 310 313 315
3 319 322 320
3 319 321 322
3 324 328 327
3 324 325 328
3 323 328 325
3 323 326 328
3 308 320 309
3 308 319 320
3 315 325 324
3 315 316 325
3 314 325 316
3 314 323 325
3 304 314 311
3 304 306 314
3 317 326 323
3 317 318 326
3 305 308 309
3 305 309 306
3 303 308 305
3 303 307 308
3 317 322 318
3 317 320 322
3 306 320 317
3 306 309 320
3 306 323 314
3 306 317 323
3 330 333 332
3 330 331 333
3 337 338 340
3 337 340 339
3 334 338 337
3 334 335 338
3 334 339 336
3 334 337 339
3 346 350 349
3 346 347 350
3 345 350 347
3 345 348 350
3 351 354 353
3 351 352 354
3 332 343 342
3 332 333 343
3 339 347 346
3 339 340 347
3 338 347 340
3 338 345 347
3 342 343 352
3 342 352 351
3 343 354 352
3 343 344 354
3 329 334 336
3 329 336 331
3 331 339 333
3 331 336 339
3 343 349 344
3 343 346 349
3 333 346 343
3 333 339 346
3 332 351 341
3 332 342 351
3 297 304 297
3 297 303 304
3 298 311 310
3 298 298 311
3 298 312 298
3 298 310 312
3 297 311 298
3 297 304 311
3 300 331 330
3 300 300 331
3 300 331 300
3 300 329 331
3 301 335 334
3 301 301 335
3 300 334 329
3 300 301 334
3 287 288 300
3 287 300 300
3 294 295 301
3 294 301 301
3 291 301 301
3 291 294 301
3 288 291 301
3 288 301 300
3 280 300 299
3 280 287 300
3 312 355 355
3 312 315 355
3 324 356 356
3 324 327 356
3 315 356 355
3 315 324 356
3 285 297 297
3 285 297 286
3 293 298 298
3 293 298 295
3 290 298 293
3 290 298 298
3 286 297 298
3 286 298 290
3 273 297 285
3 273 296 297
3 335 355 338
3 335 355 355
3 345 356 348
3 345 356 356
3 338 356 345
3 338 355 356
3 302 312 355
3 302 355 335
3 295 312 302
3 295 298 312
3 295 335 301
3 295 302 335
3 358 360 361
3 358 361 359
3 362 364 366
3 362 366 365
3 376 379 377
3 376 378 379
3 373 376 377
3 373 377 374
3 373 375 378
3 373 378 376
3 368 373 374
3 368 374 369
3 368 370 375
3 368 375 373
3 360 369 361
3 360 368 369
3 358 367 368
3 358 368 360
3 365 370 368
3 365 366 370
3 362 365 368
3 362 368 367
3 366 372 375
3 366 375 370
3 361 369 374
3 361 374 371
3 382 385 383
3 382 384 385
3 380 382 383
3 380 383 381
3 389 392 390
3 389 391 392
3 386 389 390
3 386 390 387
3 386 388 391
3 386 391 389
3 393 394 396
3 393 396 395
3 397 399 401
3 397 401 400
3 406 409 407
3 406 408 409
3 407 409 411
3 407 411 410
3 391 398 399
3 391 399 392
3 390 392 399
3 390 399 397
3 395 396 408
3 395 408 406
3 388 393 395
3 388 395 391
3 398 407 399
3 398 406 407
3 399 407 410
3 399 410 401
3 400 405 403
3 400 401 405
3 397 400 403
3 397 403 402
3 401 412 405
3 401 410 412
3 391 395 406
3 391 406 398
3 421 424 422
3 421 423 424
3 422 424 426
3 422 426 425
3 418 422 418
3 418 421 422
3 418 422 425
3 418 425 418
3 419 423 421
3 419 420 423
3 430 433 431
3 430 432 433
3 427 430 431
3 427 431 428
3 427 429 432
3 427 432 430
3 384 416 417
3 384 417 385
3 383 385 417
3 383 417 415
3 403 418 418
3 403 418 404
3 403 405 418
3 403 418 418
3 410 411 420
3 410 420 419
3 410 419 421
3 410 421 412
3 411 423 420
3 411 413 423
3 405 412 421
3 405 421 418
3 363 387 364
3 363 386 387
3 364 387 390
3 364 390 366
3 378 404 379
3 378 403 404
3 375 402 403
3 375 403 378
3 372 402 375
3 372 397 402
3 366 390 397
3 366 397 372
3 416 428 417
3 416 427 428
3 357 380 380
3 357 359 380
3 359 361 380
3 359 380 380
3 377 384 384
3 377 379 384
3 374 377 384
3 374 384 384
3 371 384 382
3 371 374 384
3 361 371 382
3 361 382 380
3 425 429 429
3 425 426 429
3 418 429 427
3 418 425 429
3 414 427 416
3 414 418 427
3 379 414 416
3 379 416 384
3 379 404 418
3 379 418 414
3 434 436 437
3 434 437 435
3 440 443 444
3 440 444 441
3 439 443 440
3 439 442 443
3 447 450 448
3 447 449 450
3 449 451 452
3 449 452 450
3 461 464 462
3 461 463 464
3 458 461 462
3 458 462 459
3 459 464 460
3 459 462 464
3 436 447 448
3 436 448 437
3 437 450 438
3 437 448 450
3 443 453 454
3 443 454 444
3 451 457 452
3 451 456 457
3 441 446 445
3 441 444 446
3 453 459 454
3 453 458 459
3 453 461 458
3 453 455 461
3 437 443 442
3 437 438 443
3 435 437 442
3 435 442 439
3 450 452 455
3 450 455 453
3 452 461 455
3 452 457 461
3 438 450 453
3 438 453 443
3 444 459 446
3 444 454 459
3 469 472 470
3 469 471 472
3 478 481 479
3 478 480 481
3 482 485 483
3 482 484 485
3 484 487 488
3 484 488 485
3 482 487 484
3 482 486 487
3 491 494 492
3 491 493 494
3 489 494 490
3 489 492 494
3 471 485 472
3 471 483 485
3 476 490 477
3 476 489 490
3 487 492 488
3 487 491 492
3 485 492 489
3 485 488 492
3 474 480 478
3 474 475 480
3 469 474 473
3 469 470 474
3 470 472 475
3 470 475 474
3 476 481 480
3 476 477 481
3 472 480 475
3 472 476 480
3 472 489 476
3 472 485 489
3 499 502 500
3 499 501 502
3 503 506 504
3 503 505 506
3 505 508 509
3 505 509 506
3 503 508 505
3 503 507 508
3 515 518 516
3 515 517 518
3 513 518 514
3 513 516 518
3 520 523 521
3 520 522 523
3 510 520 521
3 510 521 511
3 511 523 512
3 511 521 523
3 501 511 502
3 501 510 511
3 508 516 509
3 508 515 516
3 506 516 513
3 506 509 516
3 500 508 507
3 500 502 508
3 498 500 507
3 498 507 503
3 511 517 515
3 511 512 517
3 502 515 508
3 502 511 515
3 501 520 510
3 501 519 520
3 456 496 496
3 456 496 457
3 463 497 497
3 463 497 464
3 461 497 463
3 461 497 497
3 457 496 497
3 457 497 461
3 451 496 456
3 451 495 496
3 486 524 487
3 486 524 524
3 491 525 493
3 491 525 525
3 487 525 491
3 487 524 525
3 496 500 496
3 496 499 500
3 496 500 498
3 496 496 500
3 497 504 497
3 497 503 504
3 496 503 497
3 496 498 503
3 466 471 469
3 466 466 471
3 467 483 467
3 467 482 483
3 467 486 482
3 467 467 486
3 466 483 471
3 466 467 483
3 445 446 466
3 445 466 466
3 459 467 467
3 459 460 467
3 460 464 467
3 460 467 467
3 441 466 465
3 441 445 466
3 446 459 467
3 446 467 466
3 504 524 524
3 504 506 524
3 513 525 525
3 513 514 525
3 506 525 524
3 506 513 525
3 464 486 467
3 464 468 486
3 468 504 524
3 468 524 486
3 464 504 468
3 464 497 504
3 526 527 529
3 526 529 528
3 531 535 534
3 531 532 535
3 532 533 536
3 532 536 535
3 539 542 540
3 539 541 542
3 540 542 544
3 540 544 543
3 553 556 554
3 553 555 556
3 551 556 555
3 551 552 556
3 550 551 555
3 550 555 553
3 529 542 541
3 529 530 542
3 528 529 541
3 528 541 539
3 535 536 548
3 535 548 547
3 529 535 530
3 529 534 535
3 527 531 534
3 527 534 529
3 542 547 549
3 542 549 544
3 533 538 536
3 533 537 538
3 543 546 545
3 543 544 546
3 547 551 550
3 547 548 551
3 547 553 549
3 547 550 553
3 544 553 546
3 544 549 553
3 536 551 548
3 536 538 551
3 530 535 547
3 530 547 542
3 560 563 561
3 560 562 563
3 560 565 564
3 560 561 565
3 568 571 569
3 568 570 571
3 568 573 572
3 568 569 573
3 545 546 566
3 545 566 566
3 553 567 567
3 553 554 567
3 554 556 567
3 554 567 567
3 546 553 567
3 546 567 566
3 564 575 574
3 564 565 575
3 537 558 558
3 537 558 538
3 551 559 552
3 551 559 559
3 552 559 559
3 552 559 556
3 538 558 559
3 538 559 551
3 570 575 571
3 570 574 575
3 558 564 559
3 558 560 564
3 566 570 568
3 566 567 570
3 556 564 557
3 556 559 564
3 556 570 567
3 556 557 570
3 557 564 574
3 557 574 570
3 583 586 584
3 583 585 586
3 590 593 591
3 590 592 593
3 588 593 592
3 588 589 593
3 587 593 589
3 587 591 593
3 597 600 598
3 597 599 600
3 595 600 599
3 595 596 600
3 594 600 596
3 594 598 600
3 581 596 582
3 581 594 596
3 590 602 601
3 590 591 602
3 590 603 592
3 590 601 603
3 580 591 587
3 580 582 591
3 595 602 596
3 595 601 602
3 595 604 601
3 595 599 604
3 581 586 585
3 581 582 586
3 580 586 582
3 580 584 586
3 582 602 591
3 582 596 602
3 605 608 607
3 605 606 608
3 612 615 613
3 612 614 615
3 610 615 614
3 610 611 615
3 609 615 611
3 609 613 615
3 619 622 620
3 619 621 622
3 619 624 623
3 619 620 624
3 619 625 621
3 619 623 625
3 626 630 629
3 626 627 630
3 607 622 621
3 607 608 622
3 612 627 626
3 612 613 627
3 612 628 614
3 612 626 628
3 605 617 606
3 605 616 617
3 605 618 616
3 605 607 618
3 606 614 608
3 606 610 614
3 620 628 626
3 620 622 628
3 620 629 624
3 620 626 629
3 608 628 622
3 608 614 628
3 632 635 633
3 632 634 635
3 639 642 640
3 639 641 642
3 637 642 641
3 637 638 642
3 636 642 638
3 636 640 642
3 643 646 644
3 643 645 646
3 643 648 647
3 643 644 648
3 643 649 645
3 643 647 649
3 650 653 651
3 650 652 653
3 632 656 655
3 632 633 656
3 632 657 634
3 632 655 657
3 634 648 635
3 634 647 648
3 637 651 638
3 637 650 651
3 637 654 650
3 637 641 654
3 633 641 639
3 633 635 641
3 644 652 650
3 644 646 652
3 644 654 648
3 644 650 654
3 635 654 641
3 635 648 654
3 579 653 652
3 579 579 653
3 579 653 579
3 579 651 653
3 578 652 646
3 578 579 652
3 577 651 579
3 577 638 651
3 597 658 599
3 597 658 658
3 623 659 659
3 623 624 659
3 579 630 579
3 579 629 630
3 579 630 627
3 579 579 630
3 578 629 579
3 578 624 629
3 576 627 613
3 576 579 627
3 645 659 646
3 645 659 659
3 588 631 631
3 588 592 631
3 579 603 601
3 579 579 603
3 579 604 579
3 579 601 604
3 577 604 599
3 577 579 604
3 576 603 579
3 576 592 603
3 609 631 613
3 609 631 631
3 636 658 658
3 636 638 658
3 576 631 592
3 576 613 631
3 577 658 638
3 577 599 658
3 578 659 624
3 578 646 659
3 60 358 359
3 60 359 61
3 59 61 359
3 59 359 357
3 66 363 364
3 66 364 67
3 65 67 364
3 65 364 362
3 65 362 367
3 65 367 69
3 60 69 367
3 60 367 358
3 72 380 381
3 72 381 73
3 76 76 388
3 76 388 386
3 77 77 394
3 77 394 393
3 76 77 393
3 76 393 388
3 59 357 380
3 59 380 72
3 66 76 386
3 66 386 363
3 150 434 435
3 150 435 151
3 158 440 441
3 158 441 159
3 156 440 158
3 156 439 440
3 151 435 439
3 151 439 156
3 162 466 163
3 162 465 466
3 182 474 183
3 182 473 474
3 186 479 187
3 186 478 479
3 179 469 473
3 179 473 182
3 183 478 186
3 183 474 478
3 159 441 465
3 159 465 162
3 163 469 179
3 163 466 469
3 239 240 527
3 239 527 526
3 244 532 531
3 244 245 532
3 245 246 533
3 245 533 532
3 246 537 533
3 246 248 537
3 240 244 531
3 240 531 527
3 255 558 558
3 255 256 558
3 256 257 558
3 256 558 558
3 263 563 562
3 263 264 563
3 262 263 562
3 262 562 560
3 257 560 558
3 257 262 560
3 248 255 558
3 248 558 537
3 321 584 322
3 321 583 584
3 327 589 588
3 327 328 589
3 326 589 328
3 326 587 589
3 318 584 580
3 318 322 584
3 318 587 326
3 318 580 587
3 349 611 610
3 349 350 611
3 348 611 350
3 348 609 611
3 353 617 616
3 353 354 617
3 344 610 606
3 344 349 610
3 344 617 354
3 344 606 617
3 348 631 609
3 348 356 631
3 327 631 356
3 327 588 631
3 34 35 197
3 34 197 196
3 31 194 197
3 31 197 35
3 19 20 190
3 19 190 189
3 16 188 190
3 16 190 20
3 31 37 199
3 31 199 194
3 19 189 199
3 19 199 37
3 75 221 225
3 75 225 75
3 77 237 239
3 77 239 77
3 75 225 237
3 75 237 77
3 40 41 212
3 40 212 211
3 16 40 211
3 16 211 188
3 34 196 221
3 34 221 75
3 394 526 528
3 394 528 396
3 408 540 409
3 408 539 540
3 409 540 543
3 409 543 411
3 411 545 413
3 411 543 545
3 396 528 539
3 396 539 408
3 423 566 424
3 423 566 566
3 424 566 566
3 424 566 426
3 432 573 433
3 432 572 573
3 429 568 572
3 429 572 432
3 426 568 429
3 426 566 568
3 413 545 566
3 413 566 423
3 118 119 266
3 118 266 265
3 126 127 273
3 126 273 272
3 122 272 270
3 122 126 272
3 119 122 270
3 119 270 266
3 131 297 296
3 131 133 297
3 175 308 307
3 175 177 308
3 185 321 319
3 185 187 321
3 173 175 307
3 173 307 303
3 177 319 308
3 177 185 319
3 127 131 296
3 127 296 273
3 133 303 297
3 133 173 303
3 522 656 523
3 522 655 656
3 517 640 518
3 517 639 640
3 514 640 636
3 514 518 640
3 512 639 517
3 512 633 639
3 512 656 633
3 512 523 656
3 493 598 494
3 493 597 598
3 490 598 594
3 490 494 598
3 479 585 583
3 479 481 585
3 477 585 481
3 477 581 585
3 477 594 581
3 477 490 594
3 514 658 525
3 514 636 658
3 493 658 597
3 493 525 658
3 5 79 81
3 5 81 5
3 5 5 81
3 5 81 78
3 7 87 88
3 7 88 7
3 7 7 88
3 7 88 85
3 7 85 92
3 7 92 9
3 5 9 92
3 5 92 79
3 39 104 106
3 39 106 39
3 41 116 118
3 41 118 41
3 39 106 116
3 39 116 41
3 71 71 138
3 71 138 134
3 73 73 150
3 73 150 148
3 71 73 148
3 71 148 138
3 5 78 104
3 5 104 39
3 7 71 134
3 7 134 87
3 212 265 267
3 212 267 212
3 214 278 280
3 214 280 214
3 214 278 214
3 214 276 278
3 212 267 276
3 212 276 214
3 218 300 220
3 218 299 300
3 259 332 259
3 259 330 332
3 264 353 264
3 264 351 353
3 259 332 341
3 259 341 261
3 261 351 264
3 261 341 351
3 214 280 299
3 214 299 218
3 220 330 259
3 220 300 330
3 381 381 436
3 381 436 434
3 383 449 447
3 383 383 449
3 383 383 451
3 383 451 449
3 381 383 447
3 381 447 436
3 415 496 495
3 415 417 496
3 428 501 499
3 428 428 501
3 433 522 520
3 433 433 522
3 431 520 519
3 431 433 520
3 428 431 519
3 428 519 501
3 417 499 496
3 417 428 499
3 383 415 495
3 383 495 451
3 563 618 563
3 563 616 618
3 565 625 623
3 565 565 625
3 565 625 565
3 565 621 625
3 561 618 607
3 561 563 618
3 561 621 565
3 561 607 621
3 571 649 647
3 571 571 649
3 571 649 571
3 571 645 649
3 573 657 655
3 573 573 657
3 569 647 634
3 569 571 647
3 569 657 573
3 569 634 657
3 571 659 645
3 571 575 659
3 565 659 575
3 565 623 659
3 41 118 265
3 41 265 212
3 433 655 522
3 433 573 655
3 73 381 434
3 73 434 150
3 264 616 563
3 264 353 616
3 77 239 526
3 77 526 394
3 187 583 321
3 187 479 583
