ply
format ascii 1.0
comment VCGLIB generated
element vertex 23
property float x
property float y
property float z
property uchar red
property uchar green
property uchar blue
end_header
-19.0625 -171.562 181.016 255 0 0
-19.0625 -171.562 174.985 255 0 0
-5.59962 -171.562 190.625 255 255 0
-4.32174 -171.562 190.625 255 255 0
-38.125 -118.967 95.3125 0 255 255
-38.125 -117.858 95.3125 0 255 255
-53.3478 -85.7812 142.969 255 255 0
-53.9269 -85.7812 142.969 255 255 0
-47.6562 -49.8108 85.7812 0 255 255
-47.6562 -55.2905 85.7812 0 255 255
-57.1875 -91.2045 257.344 0 255 255
-57.1875 -89.3162 257.344 0 255 255
9.53125 -190.625 118.844 255 0 0
9.53125 -190.625 118.858 255 0 0
66.7188 -162.031 176.615 255 0 0
66.7188 -162.031 171.9 255 0 0
76.25 0 19.843 255 0 0
76.25 0 22.6858 255 0 0
85.7812 -84.4278 142.969 0 255 255
85.7812 -80.6213 142.969 0 255 255
95.3125 -65.7956 171.562 0 255 255
95.3125 -66.3289 171.562 0 255 255
95.3125 -60.7209 171.562 0 255 255
