ply
format ascii 1.0
element vertex 535
property float x
property float y
property float z
property uchar red
property uchar green
property uchar blue
element face 956
property list uchar int vertex_index
end_header
-79.1491 -51.4969 7.23549 128 128 128
-78.0285 -41.9114 19.2968 128 128 128
-53.4597 -78.1375 6.69246 128 128 128
-45.6588 -73.6724 15.0932 128 128 128
-67.8445 -64.168 10.9938 128 128 128
-65.0385 -58.1361 20.0338 128 128 128
-68.886 -54.2982 21.3594 128 128 128
-66.3111 -49.6295 34.1722 128 128 128
-58.8093 -63.8501 18.861 128 128 128
-53.8702 -58.2734 37.2769 128 128 128
-60.1359 -56.5384 30.3102 128 128 128
-56.9958 -53.6234 39.8598 128 128 128
-53.0936 -45.6944 65.8471 128 128 128
-90.0851 -27.0104 6.20971 128 128 128
-81.1754 -26.829 26.9962 128 128 128
-90.4701 10.5658 11.4642 128 128 128
-85.0542 15.1267 21.7216 128 128 128
-72.9427 -35.3964 36.093 128 128 128
-75.8619 22.784 39.3623 128 128 128
-77.4186 -13.3251 52.6321 128 128 128
-78.9846 8.27428 51.4746 128 128 128
-67.0124 -36.6729 52.496 128 128 128
-62.7549 -32.1436 70.5906 128 128 128
-71.5894 -17.0511 56.7252 128 128 128
-66.7693 -18.0103 75.6037 128 128 128
-60.499 -38.815 62.0689 128 128 128
-56.7738 -38.338 74.9524 128 128 128
-60.7339 -24.133 80.2331 128 128 128
-56.8304 -26.1315 102.556 128 128 128
-71.3905 9.79154 69.8089 128 128 128
-64.4184 9.69907 99.6842 128 128 128
-25.196 -77.5557 10.5341 128 128 128
-27.4919 -73.4942 18.1496 128 128 128
-23.6985 -73.2067 14.4174 128 128 128
-33.366 -67.4015 29.6045 128 128 128
-0.508144 -75.7355 6.21121 128 128 128
8.3287 -68.4168 7.26706 128 128 128
-7.34477 -63.901 24.9463 128 128 128
-8.56066 -59.3798 39.1021 128 128 128
1.39857 -56.4315 27.64 128 128 128
-2.03844 -53.8236 39.7029 128 128 128
11.1492 -62.5518 19.7113 128 128 128
8.52905 -57.6817 34.847 128 128 128
16.2353 -53.7565 24.0133 128 128 128
13.8623 -47.9859 39.2697 128 128 128
-35.3637 -57.9079 52.9409 128 128 128
-32.7991 -56.4431 58.4965 128 128 128
-33.9182 -50.1758 74.199 128 128 128
-17.8972 -58.1902 50.28 128 128 128
-20.8174 -56.0854 56.6646 128 128 128
-22.2295 -50.6257 74.4261 128 128 128
-29.2459 -45.2412 98.8529 128 128 128
-7.10615 -57.3457 48.6481 128 128 128
-5.24497 -50.5395 57.6278 128 128 128
-8.37028 -49.1954 72.3802 128 128 128
9.0478 -46.3119 54.8596 128 128 128
10.009 -42.403 70.7026 128 128 128
-1.87252 -42.927 100.752 128 128 128
19.1209 -39.5152 45.2461 128 128 128
-42.7542 -39.7066 103.629 128 128 128
13.0757 -36.327 67.5197 128 128 128
11.9688 -35.7323 84.4362 128 128 128
-81.2076 -40.8046 173.114 128 128 128
-51.5406 -42.3137 137.73 128 128 128
-58.4242 -55.1011 163.896 128 128 128
-84.1432 -42.9722 204.189 128 128 128
-83.7531 -43.2974 226.878 128 128 128
-64.1295 -58.1297 189.109 128 128 128
-65.6667 -58.7434 203.275 128 128 128
-67.6484 -54.7617 183.971 128 128 128
-68.8813 -54.994 209.401 128 128 128
-50.6018 -65.6305 190.481 128 128 128
-52.8157 -65.1596 203.275 128 128 128
-60.2457 -56.7528 179.821 128 128 128
-65.426 -58.7767 219.67 128 128 128
-64.7526 -58.4435 232.642 128 128 128
-71.0466 -51.5383 220.885 128 128 128
-68.8121 -51.02 235.79 128 128 128
-52.7531 -65.0429 219.67 128 128 128
-47.7446 -66.3348 239.972 128 128 128
-59.1687 -56.4158 238.838 128 128 128
-77.6282 -34.2586 164.149 128 128 128
-86.4128 5.83691 161.118 128 128 128
-57.1143 -28.9814 130.261 128 128 128
-66.4085 -39.5754 154.14 128 128 128
-67.363 9.39957 130.642 128 128 128
-75.5492 7.81732 146.608 128 128 128
-93.5702 -24.3517 194.698 128 128 128
-93.6689 -28.5224 206.632 128 128 128
-94.6627 -14.3497 190.895 128 128 128
-95.8793 -16.125 198.402 128 128 128
-90.4706 -27.153 193.658 128 128 128
-92.4118 -28.3621 206.821 128 128 128
-93.4129 -14.3425 188.254 128 128 128
-93.3673 -22.1737 200.058 128 128 128
-94.887 -24.3408 213.403 128 128 128
-95.748 -19.4637 215.498 128 128 128
-94.6191 -14.8011 234.841 128 128 128
-89.7202 -31.1769 225.372 128 128 128
-88.1933 -31.0946 235.54 128 128 128
-93.2813 -23.5102 219.65 128 128 128
-92.1801 -23.6553 234.797 128 128 128
-100.178 3.32387 196.804 128 128 128
-101.112 1.5619 229.822 128 128 128
-76.7119 -39.9777 184.764 128 128 128
-77.1454 -40.5768 244.253 128 128 128
-25.0704 -50.2493 128.854 128 128 128
-28.3564 -64.0079 158.828 128 128 128
2.34842 -48.9965 121.381 128 128 128
-3.88254 -67.5805 161.619 128 128 128
-20.2401 -74.2582 206.325 128 128 128
-18.6124 -73.8647 221.841 128 128 128
-28.35 -72.4854 193.939 128 128 128
-25.5749 -72.4002 236.154 128 128 128
4.9926 -74.9602 196.034 128 128 128
-3.76304 -75.2598 220.929 128 128 128
6.22043 -71.1806 194.338 128 128 128
-2.14646 -71.6466 223.395 128 128 128
-7.91127 -70.8314 239.28 128 128 128
12.4947 -71.2282 215.509 128 128 128
13.6991 -67.3886 236.837 128 128 128
-42.9008 -39.8047 119.673 128 128 128
-77.6545 -41.3951 245.476 128 128 128
-62.5053 -57.5441 248.74 128 128 128
-71.6659 -43.1368 253.889 128 128 128
-65.3535 -41.037 265.848 128 128 128
-50.7993 -60.3605 249.17 128 128 128
-46.8919 -58.0247 262.22 128 128 128
-52.7688 -50.8673 259.136 128 128 128
-51.3727 -42.4207 276.711 128 128 128
-48.8494 -41.5814 277.904 128 128 128
-83.8859 -27.1192 253.767 128 128 128
-94.453 -2.57492 249.053 128 128 128
-96.6846 15.5861 248.358 128 128 128
-90.9287 -6.0311 258.334 128 128 128
-84.4183 -0.981874 270.415 128 128 128
-90.4108 13.9873 258.26 128 128 128
-83.0643 14.926 271.345 128 128 128
-79.022 3.05493 277.226 128 128 128
-69.2676 -37.9691 266.298 128 128 128
-66.8672 -17.3852 283.205 128 128 128
-75.9207 13.2141 275.834 128 128 128
-70.4562 5.26113 284.78 128 128 128
-31.5958 -66.7328 248.686 128 128 128
-33.8817 -58.9162 265.217 128 128 128
-40.4894 -56.9441 257.761 128 128 128
-35.8631 -49.466 273.661 128 128 128
-16.4149 -67.3144 252.973 128 128 128
-13.1759 -61.416 266.982 128 128 128
-15.3311 -54.2786 274.61 128 128 128
-25.4584 -44.4252 283.726 128 128 128
-10.2761 -68.4551 251.229 128 128 128
-9.5138 -62.1325 265.245 128 128 128
-10.4059 -55.7291 273.022 128 128 128
14.6232 -61.3994 258.291 128 128 128
8.93844 -58.4031 264.384 128 128 128
17.9018 -56.4852 257.34 128 128 128
13.7645 -47.2553 276.574 128 128 128
0.0825343 -46.4717 280.9 128 128 128
-30.1991 -31.4655 294.13 128 128 128
21.0711 -40.4792 276.96 128 128 128
11.69 -28.9889 293.791 128 128 128
21.2239 8.60602 296.007 128 128 128
-241.104 225.697 -1.6684 128 128 128
-87.7611 39.5673 8.66686 128 128 128
-80.1334 35.0511 21.7032 128 128 128
-83.2484 62.0105 7.04488 128 128 128
-71.0753 54.2128 10.9688 128 128 128
-75.9644 34.6762 27.3551 128 128 128
-73.0316 32.8092 40.0478 128 128 128
-73.0446 44.4375 25.5005 128 128 128
-63.0285 50.2165 39.2938 128 128 128
-50.9529 56.8884 25.2596 128 128 128
-53.4776 53.9165 41.9733 128 128 128
-60.1861 63.2757 14.2829 128 128 128
-58.6057 60.7958 27.03 128 128 128
-68.045 32.2624 54.8973 128 128 128
-63.5007 29.5428 69.2486 128 128 128
-63.4281 42.7311 51.9692 128 128 128
-59.5493 38.7459 60.2901 128 128 128
-58.5791 33.6663 75.9517 128 128 128
-57.767 48.1774 55.4866 128 128 128
-53.8529 43.175 70.2194 128 128 128
-51.1969 31.3209 99.1659 128 128 128
-35.1842 57.2089 37.4433 128 128 128
-32.2153 65.1512 10.2039 128 128 128
-37.1459 75.3586 10.9371 128 128 128
-15.633 66.5588 9.75265 128 128 128
-18.824 75.379 7.6266 128 128 128
-36.1792 64.6261 22.7992 128 128 128
-35.7788 60.0046 37.3023 128 128 128
-14.9621 62.7206 25.5193 128 128 128
-16.2014 59.6289 36.6932 128 128 128
10.7066 52.6245 35.3013 128 128 128
6.51413 63.77 12.0932 128 128 128
4.655 60.5492 23.5254 128 128 128
-35.755 41.2664 79.4381 128 128 128
-40.2315 50.7556 56.6031 128 128 128
-35.0808 46.3038 77.3331 128 128 128
-16.3432 51.4226 57.3042 128 128 128
-13.5146 48.9431 72.198 128 128 128
-37.8544 38.8751 87.5656 128 128 128
-39.1405 36.4903 100.246 128 128 128
-34.2405 44.2176 87.8587 128 128 128
-32.7003 45.0944 102.618 128 128 128
-26.3598 40.8375 93.8655 128 128 128
-22.3026 40.5199 108.02 128 128 128
-15.9127 46.5079 87.3764 128 128 128
-18.1342 44.3054 104.941 128 128 128
-28.2884 57.9873 48.0433 128 128 128
8.28868 45.4508 62.6339 128 128 128
5.11399 40.3404 96.6693 128 128 128
-78.2947 40.0485 170.733 128 128 128
-50.8203 35.6431 131.153 128 128 128
-67.1587 37.4988 155.336 128 128 128
-73.9537 37.1802 166.176 128 128 128
-64.759 42.9643 158.531 128 128 128
-65.6195 49.5435 169.116 128 128 128
-59.0423 39.3494 148.06 128 128 128
-58.0856 46.1487 154.696 128 128 128
-59.7352 50.9908 164.23 128 128 128
-52.3173 59.8424 172.824 128 128 128
-93.7869 28.896 192.238 128 128 128
-97.442 29.4503 208.314 128 128 128
-82.9468 40.8612 186.618 128 128 128
-87.9246 35.6029 203.238 128 128 128
-78.6844 48.5671 194.377 128 128 128
-79.6515 50.3093 205.638 128 128 128
-99.2799 28.5405 218.576 128 128 128
-94.7255 32.9007 233.624 128 128 128
-88.5366 36.4955 219.67 128 128 128
-87.646 35.7277 237.884 128 128 128
-81.3 50.521 216.475 128 128 128
-80.0391 49.1168 236.886 128 128 128
-76.9603 49.23 191.685 128 128 128
-74.3445 55.3357 228.553 128 128 128
-63.5887 59.9773 186.867 128 128 128
-66.8164 61.0994 204.275 128 128 128
-45.4852 67.688 184.918 128 128 128
-46.9029 69.2645 199.353 128 128 128
-46.2237 74.9652 203.097 128 128 128
-70.0125 60.8313 215.8 128 128 128
-70.5494 60.6118 230.054 128 128 128
-55.1756 66.8883 221.306 128 128 128
-57.7346 65.5249 241.815 128 128 128
-51.4864 75.3536 219.743 128 128 128
-49.3334 75.023 233.604 128 128 128
-39.1619 39.386 123.898 128 128 128
-27.9625 41.0752 130.154 128 128 128
-30.6165 47.8761 122.974 128 128 128
-39.8136 51.1364 142.123 128 128 128
-22.8498 40.1739 119.56 128 128 128
-27.6753 41.1795 130.196 128 128 128
-19.4759 48.7929 121.78 128 128 128
-14.3131 53.1586 135.496 128 128 128
-42.5805 56.3195 159.428 128 128 128
-18.5881 60.1137 139.983 128 128 128
-35.4339 60.5915 156.365 128 128 128
-35.387 64.3985 164.425 128 128 128
-28.4195 74.3251 178.103 128 128 128
-13.0658 67.5073 157.355 128 128 128
-13.2112 72.9455 173.842 128 128 128
-23.3114 74.4849 173.437 128 128 128
6.15799 49.1738 122.304 128 128 128
-11.2863 57.7398 145.991 128 128 128
11.7779 62.9073 141.718 128 128 128
5.14769 74.3558 171.088 128 128 128
-32.1683 71.4531 186.65 128 128 128
-38.4324 70.7196 200.967 128 128 128
-30.0468 76.8751 190.052 128 128 128
-34.3706 76.796 203.617 128 128 128
-18.4837 73.5267 186.009 128 128 128
-27.081 73.4415 196.017 128 128 128
-14.4254 77.6791 189.504 128 128 128
-14.4605 79.0555 203.079 128 128 128
-39.9591 71.7243 218.064 128 128 128
-34.9049 73.233 238.064 128 128 128
-28.4408 80.0305 220.17 128 128 128
-34.1013 78.0416 236.066 128 128 128
-11.567 74.0727 243.799 128 128 128
-13.0136 81.0396 220.917 128 128 128
-12.6038 81.7507 233.853 128 128 128
-0.447489 77.7944 190.722 128 128 128
7.71203 79.0231 230.311 128 128 128
-83.3273 35.3121 256.555 128 128 128
-76.4161 40.4139 259.464 128 128 128
-73.6605 33.6836 270.584 128 128 128
-74.576 50.256 248.406 128 128 128
-66.7389 43.3559 272.332 128 128 128
-60.467 41.0377 276.773 128 128 128
-59.8577 55.7607 260.329 128 128 128
-52.563 50.9141 276.159 128 128 128
-57.0516 37.6455 284.834 128 128 128
-54.5319 65.3336 257.106 128 128 128
-42.9336 56.8899 275.896 128 128 128
-32.1225 50.4976 289.456 128 128 128
-37.0703 70.133 254.323 128 128 128
-30.4718 65.1793 274.038 128 128 128
-30.9534 75.9497 253.161 128 128 128
-28.2209 74.2537 260.831 128 128 128
-19.0439 72.8466 254.581 128 128 128
-19.3467 68.5621 272.77 128 128 128
-13.215 77.0242 254.118 128 128 128
-20.5652 75.9939 261.381 128 128 128
-27.9845 61.2566 280.943 128 128 128
20.4052 57.1212 276.618 128 128 128
0.131311 40.9918 297.045 128 128 128
-2.24903 57.702 286.108 128 128 128
-2.91167 44.1776 295.408 128 128 128
15.9099 40.5229 291.897 128 128 128
13.5657 39.6864 295.056 128 128 128
16.2519 53.958 284.012 128 128 128
12.9521 42.4358 294.044 128 128 128
1.16836 70.7458 258.536 128 128 128
-2.92026 64.7015 274.486 128 128 128
-2.57052 75.6903 255.79 128 128 128
-10.1738 74.581 261.22 128 128 128
17.1973 71.7395 250.46 128 128 128
15.4282 64.6463 268.826 128 128 128
10.7219 74.8733 249.054 128 128 128
-5.56185 60.8932 282.685 128 128 128
29.4216 -73.3713 4.80901 128 128 128
26.176 -68.0021 5.55019 128 128 128
35.8948 -52.6715 11.2884 128 128 128
41.8738 -64.3251 4.09251 128 128 128
47.6437 -48.2695 8.25632 128 128 128
42.5659 -43.3772 18.4148 128 128 128
54.5622 -46.4137 6.78578 128 128 128
22.2664 -41.2496 71.1803 128 128 128
51.593 -35.9864 12.0631 128 128 128
34.563 -40.3425 28.1036 128 128 128
31.9396 -34.313 40.3737 128 128 128
37.2927 -23.8577 46.9808 128 128 128
50.5007 -31.7631 19.6914 128 128 128
40.1096 -28.9793 37.7171 128 128 128
52.1616 -18.4641 26.4514 128 128 128
49.1098 -15.1527 36.5987 128 128 128
37.5745 24.8903 47.3946 128 128 128
53.0407 0.0462497 29.1147 128 128 128
50.8041 -3.26259 38.7228 128 128 128
51.3692 19.1073 26.3311 128 128 128
47.2145 14.652 41.4906 128 128 128
64.8189 -22.6042 8.0006 128 128 128
58.213 -18.9203 18.7727 128 128 128
67.2856 3.84182 9.94747 128 128 128
59.8006 6.5605 20.5195 128 128 128
29.2015 -30.4622 54.6278 128 128 128
25.7453 -30.2276 67.0844 128 128 128
36.2695 -17.9139 60.1094 128 128 128
34.8087 -14.0956 69.1651 128 128 128
39.2112 -25.4393 50.4287 128 128 128
42.9017 -11.635 52.5917 128 128 128
38.19 -11.8775 65.7501 128 128 128
22.8984 -31.3386 84.6684 128 128 128
26.4674 -33.4638 102.987 128 128 128
28.7816 -15.8199 88.0062 128 128 128
28.7957 -18.3302 97.4455 128 128 128
36.6997 -0.741079 76.414 128 128 128
34.7365 22.9739 62.1405 128 128 128
33.6108 20.3266 72.4669 128 128 128
42.6766 -2.95751 58.7425 128 128 128
40.8377 -2.55131 67.4217 128 128 128
44.7921 11.7323 52.1509 128 128 128
39.8131 13.3999 69.6749 128 128 128
38.1729 12.1798 84.234 128 128 128
45.7741 -47.9021 130.5 128 128 128
28.1467 -60.2415 148.337 128 128 128
29.8618 -64.5496 171.077 128 128 128
31.3766 -56.5214 147.26 128 128 128
44.4538 -58.3067 157.276 128 128 128
44.1815 -61.8861 171.397 128 128 128
53.7934 -53.4776 152.549 128 128 128
49.7214 -55.3279 172.093 128 128 128
59.5337 -45.2806 135.068 128 128 128
67.2792 -45.0278 163.327 128 128 128
35.8936 -64.645 190.237 128 128 128
34.1258 -64.2051 202.95 128 128 128
46.3836 -58.966 188.785 128 128 128
43.7308 -58.7655 204.346 128 128 128
50.1981 -55.5602 186.933 128 128 128
51.5325 -51.5111 206.647 128 128 128
34.9233 -62.9112 221.669 128 128 128
35.1073 -59.4499 238.021 128 128 128
34.0968 -56.3488 240.583 128 128 128
40.0873 -58.9358 221.037 128 128 128
38.1728 -57.3346 233.189 128 128 128
46.1412 -54.8362 219.83 128 128 128
42.7109 -53.1085 235.696 128 128 128
57.8093 -47.2614 193.257 128 128 128
57.5538 -43.3179 221.855 128 128 128
34.0195 -40.2699 115.11 128 128 128
63.6604 -37.2186 120.934 128 128 128
68.0586 -38.6117 136.88 128 128 128
74.6354 -30.2947 126.811 128 128 128
80.2681 -27.6516 140.82 128 128 128
83.9729 -16.5636 125.321 128 128 128
85.8016 -17.1452 136.487 128 128 128
69.2905 -38.9763 155.26 128 128 128
69.4433 -39.1797 172.858 128 128 128
77.0685 -34.7319 154.123 128 128 128
82.5454 -26.6803 165.244 128 128 128
85.8195 -19.4255 155.455 128 128 128
83.2288 -18.2999 173.993 128 128 128
86.6319 14.5521 127.545 128 128 128
85.8833 19.449 167.58 128 128 128
53.3149 -39.544 238.015 128 128 128
67.145 -36.2268 184.803 128 128 128
62.4151 -37.4371 203.416 128 128 128
70.2682 -24.0095 194.713 128 128 128
69.3957 -23.2593 205.873 128 128 128
79.3395 -24.3848 178.957 128 128 128
71.1542 -27.2026 201.914 128 128 128
78.836 -19.8199 185.737 128 128 128
75.3192 -15.2028 203.346 128 128 128
61.0314 -37.0644 220.139 128 128 128
62.9585 -26.9528 241.013 128 128 128
69.6516 -18.0952 219.94 128 128 128
65.7462 -22.5885 235.819 128 128 128
70.851 -25.2988 216.673 128 128 128
71.4503 -20.9553 217.463 128 128 128
72.6207 -10.7239 233.848 128 128 128
70.248 24.6872 210.332 128 128 128
84.5991 4.57331 191.968 128 128 128
78.6552 2.11744 205.201 128 128 128
84.2358 13.454 190.049 128 128 128
77.8637 20.7579 198.797 128 128 128
70.1344 -6.32667 226.651 128 128 128
69.3889 -0.0977926 236.668 128 128 128
69.8755 23.6585 219.67 128 128 128
68.2933 21.4016 241.617 128 128 128
77.321 -0.478025 214.694 128 128 128
73.4161 0.631217 234.735 128 128 128
74.8195 20.2355 220.382 128 128 128
71.7669 18.6748 236.651 128 128 128
88.5884 -11.8146 137.825 128 128 128
87.156 -18.9622 164.114 128 128 128
92.3106 11.397 124.35 128 128 128
95.3042 0.370144 155.471 128 128 128
95.1895 2.34598 171.282 128 128 128
91.1801 20.9074 149.837 128 128 128
94.5492 10.0474 168.982 128 128 128
90.2768 6.75914 185.72 128 128 128
23.937 -61.6038 248.747 128 128 128
22.1178 -57.5958 260.858 128 128 128
36.794 -52.4384 250.103 128 128 128
29.9501 -47.0864 266.036 128 128 128
44.28 -45.9632 248.719 128 128 128
38.308 -41.9274 261.431 128 128 128
25.1731 -41.0385 277.34 128 128 128
54.1659 -40.7144 244.531 128 128 128
46.6679 -26.0825 268.887 128 128 128
33.9387 -23.4219 284.357 128 128 128
51.8489 11.5325 274.743 128 128 128
36.6244 -3.23872 288.832 128 128 128
29.4737 2.04035 294.4 128 128 128
33.4365 17.4875 288.756 128 128 128
26.3265 16.8192 297.405 128 128 128
43.7064 -6.28699 282.605 128 128 128
43.0081 16.4181 284.026 128 128 128
61.4658 -16.2741 256.271 128 128 128
67.5018 -6.82302 249.844 128 128 128
56.1049 -3.52446 267.56 128 128 128
67.5089 16.7277 248.4 128 128 128
59.1538 13.7139 265.613 128 128 128
70.4546 3.60854 246.862 128 128 128
71.0213 10.8827 245.791 128 128 128
45.9015 45.3501 12.9689 128 128 128
36.5102 38.5949 30.9152 128 128 128
37.5916 32.8499 38.1082 128 128 128
28.321 52.3313 23.3084 128 128 128
26.1262 44.6586 40.6291 128 128 128
45.7643 32.8533 24.2531 128 128 128
42.0468 29.2299 41.5818 128 128 128
41.4314 45.9309 20.7345 128 128 128
38.9706 42.5859 32.7251 128 128 128
26.8157 62.8577 9.69966 128 128 128
25.756 58.3835 15.7726 128 128 128
63.7338 32.9887 7.35149 128 128 128
56.4235 30.4966 17.3673 128 128 128
27.802 32.6291 65.7483 128 128 128
28.4586 29.1474 104.04 128 128 128
31.4105 35.688 114.624 128 128 128
26.5703 50.1253 124.495 128 128 128
29.0294 56.2576 135.467 128 128 128
50.4832 39.8854 118.561 128 128 128
48.9972 50.4276 124.898 128 128 128
46.1712 54.5454 135.101 128 128 128
52.386 56.8046 156.977 128 128 128
39.1095 61.8793 140.002 128 128 128
26.3098 66.9059 152.678 128 128 128
30.6234 71.0032 176.33 128 128 128
21.7204 74.8897 178.309 128 128 128
38.0567 66.6706 158.986 128 128 128
37.7214 68.7939 173.6 128 128 128
63.9901 40.2532 122.538 128 128 128
68.9199 41.2936 130.423 128 128 128
61.5105 45.8678 128.101 128 128 128
68.1176 47.3772 136.144 128 128 128
79.7763 30.4719 120.501 128 128 128
80.852 34.2124 137.236 128 128 128
72.7273 43.0227 129.492 128 128 128
74.6786 43.6671 139.063 128 128 128
69.9897 40.6969 177.528 128 128 128
58.7872 55.46 154.329 128 128 128
61.3009 55.8725 177.637 128 128 128
83.138 35.0565 151.794 128 128 128
80.3935 35.8119 164.428 128 128 128
76.8637 49.5186 152.558 128 128 128
71.8525 46.2573 176.586 128 128 128
54.458 57.9203 144.618 128 128 128
54.503 61.3715 174.236 128 128 128
53.7642 57.5473 205.452 128 128 128
51.9462 53.8859 234.242 128 128 128
37.6877 70.9984 196.988 128 128 128
34.3756 71.0954 224.949 128 128 128
35.1929 68.5403 238.575 128 128 128
32.3133 74.5648 216.014 128 128 128
29.5515 74.6597 232.915 128 128 128
41.6783 67.9677 220.983 128 128 128
39.0527 67.1928 234.969 128 128 128
67.4499 42.6902 194.138 128 128 128
64.1176 41.0659 232.094 128 128 128
55.1542 58.4313 201.012 128 128 128
54.4522 58.2327 216.346 128 128 128
87.0114 29.8963 150.111 128 128 128
37.4846 41.3296 276.133 128 128 128
36.7674 57.4971 259.466 128 128 128
35.8527 49.9271 271.576 128 128 128
53.5901 40.7519 257.241 128 128 128
49.935 35.063 268.793 128 128 128
49.6972 50.0383 253.367 128 128 128
41.6278 50.755 264.174 128 128 128
24.1568 40.4528 290.805 128 128 128
29.3972 65.7915 255.356 128 128 128
59.5576 36.3958 253.711 128 128 128
3 8 9 11
3 8 11 10
3 6 10 11
3 6 11 7
3 5 10 6
3 5 8 10
3 4 5 6
3 4 8 5
3 2 3 8
3 2 8 4
3 0 4 6
3 0 6 1
3 13 14 16
3 13 16 15
3 14 18 16
3 14 17 18
3 21 22 24
3 21 24 23
3 21 25 26
3 21 26 22
3 22 27 24
3 22 26 27
3 23 24 29
3 26 28 27
3 24 27 28
3 24 28 30
3 24 30 29
3 37 40 38
3 37 39 40
3 39 43 44
3 39 44 40
3 37 43 39
3 37 41 43
3 34 37 38
3 34 38 40
3 36 43 41
3 36 41 37
3 31 34 32
3 31 33 34
3 33 36 37
3 33 37 34
3 46 49 50
3 46 50 47
3 45 49 46
3 45 48 49
3 49 53 54
3 49 54 50
3 47 50 51
3 50 54 57
3 50 57 51
3 8 34 9
3 9 34 11
3 2 31 32
3 2 32 3
3 2 4 33
3 2 33 31
3 3 34 8
3 3 32 34
3 12 46 47
3 12 47 51
3 6 7 17
3 0 1 14
3 0 14 13
3 1 17 14
3 1 6 17
3 12 26 25
3 12 25 21
3 12 28 26
3 53 60 54
3 53 55 60
3 54 61 57
3 54 60 61
3 7 11 12
3 17 21 23
3 17 23 29
3 17 29 18
3 34 45 46
3 34 49 48
3 34 48 45
3 40 44 55
3 40 55 53
3 34 40 53
3 34 53 49
3 7 12 21
3 7 21 17
3 44 60 55
3 44 58 60
3 11 34 46
3 11 46 12
3 12 59 28
3 12 51 59
3 67 68 70
3 67 70 69
3 67 71 72
3 67 72 68
3 67 69 73
3 67 73 71
3 74 75 77
3 74 77 76
3 74 78 79
3 74 79 75
3 75 80 77
3 75 79 80
3 65 69 70
3 66 76 77
3 68 74 76
3 68 76 70
3 68 72 78
3 68 78 74
3 65 70 76
3 65 76 66
3 83 84 86
3 83 86 85
3 81 82 86
3 81 86 84
3 87 88 90
3 87 90 89
3 87 91 92
3 87 92 88
3 87 89 93
3 87 93 91
3 98 99 101
3 98 101 100
3 96 100 101
3 96 101 97
3 95 100 96
3 95 98 100
3 89 90 102
3 89 102 93
3 96 97 103
3 97 101 103
3 88 95 96
3 88 96 90
3 88 92 98
3 88 98 95
3 90 96 103
3 90 103 102
3 106 108 109
3 106 109 107
3 115 119 120
3 115 120 118
3 110 111 113
3 110 113 112
3 114 119 115
3 114 116 119
3 110 114 115
3 110 115 111
3 110 112 116
3 110 116 114
3 111 118 113
3 111 115 118
3 63 106 107
3 63 107 64
3 71 112 72
3 78 113 79
3 72 112 113
3 72 113 78
3 63 64 84
3 63 84 83
3 62 81 84
3 62 84 64
3 65 92 91
3 66 99 98
3 65 66 98
3 65 98 92
3 64 71 73
3 64 73 69
3 62 64 69
3 62 69 65
3 81 91 93
3 81 93 102
3 81 102 82
3 107 109 116
3 107 116 112
3 62 65 91
3 62 91 81
3 64 107 112
3 64 112 71
3 63 83 121
3 63 121 106
3 28 83 85
3 28 85 30
3 51 57 108
3 51 108 106
3 51 106 121
3 51 121 59
3 28 59 121
3 28 121 83
3 124 128 129
3 124 129 125
3 134 135 137
3 134 137 136
3 132 136 133
3 132 134 136
3 131 135 134
3 135 138 137
3 139 140 142
3 139 142 141
3 135 141 142
3 135 142 138
3 137 142 141
3 137 138 142
3 131 141 135
3 131 139 141
3 143 144 146
3 143 146 145
3 143 147 148
3 143 148 144
3 144 149 146
3 144 148 149
3 151 154 155
3 151 155 152
3 152 157 153
3 152 155 157
3 147 151 152
3 147 152 148
3 148 153 149
3 148 152 153
3 146 149 150
3 153 157 158
3 149 153 158
3 149 158 150
3 128 145 146
3 128 146 129
3 126 145 128
3 126 143 145
3 129 146 150
3 129 150 130
3 124 125 139
3 125 129 139
3 129 130 140
3 129 140 139
3 122 139 131
3 122 124 139
3 150 161 159
3 150 158 161
3 130 159 140
3 130 150 159
3 168 169 171
3 168 171 170
3 165 169 168
3 165 168 170
3 170 171 175
3 170 175 172
3 171 173 175
3 167 170 172
3 167 172 175
3 167 175 174
3 164 170 167
3 164 165 170
3 179 180 182
3 179 182 181
3 176 180 179
3 176 177 180
3 176 181 178
3 176 179 181
3 180 183 182
3 177 183 180
3 185 188 186
3 185 187 188
3 189 192 191
3 189 190 192
3 187 194 188
3 191 192 195
3 185 191 187
3 185 189 191
3 187 195 194
3 187 191 195
3 184 195 192
3 184 193 195
3 197 200 199
3 197 198 200
3 201 202 204
3 201 204 203
3 203 208 207
3 203 204 208
3 199 200 210
3 207 208 211
3 197 199 209
3 198 207 200
3 198 203 207
3 200 211 210
3 200 207 211
3 174 185 186
3 175 190 189
3 174 189 185
3 174 175 189
3 173 190 175
3 173 184 190
3 181 198 197
3 181 182 198
3 183 202 201
3 183 201 203
3 182 203 198
3 182 183 203
3 169 176 178
3 169 178 171
3 171 181 173
3 171 178 181
3 190 209 192
3 184 197 209
3 184 209 190
3 184 209 199
3 184 192 209
3 184 210 193
3 184 199 210
3 173 197 184
3 173 181 197
3 214 215 217
3 214 217 216
3 216 220 219
3 216 217 220
3 214 216 219
3 214 219 218
3 212 215 214
3 212 217 215
3 219 220 221
3 213 218 219
3 213 214 218
3 224 225 227
3 224 227 226
3 222 225 224
3 222 223 225
3 230 231 233
3 230 233 232
3 228 231 230
3 228 229 231
3 236 239 238
3 236 237 239
3 243 244 246
3 243 246 245
3 241 244 243
3 241 242 244
3 226 227 234
3 232 233 235
3 234 237 236
3 234 236 238
3 235 242 241
3 225 230 232
3 225 232 227
3 223 230 225
3 223 228 230
3 239 243 245
3 239 245 240
3 237 243 239
3 237 241 243
3 234 235 241
3 234 241 237
3 227 235 234
3 227 232 235
3 247 250 248
3 247 249 250
3 251 252 254
3 251 254 253
3 247 252 251
3 247 248 252
3 247 253 249
3 247 251 253
3 248 250 254
3 248 254 252
3 257 261 260
3 257 258 261
3 258 259 262
3 258 262 261
3 253 254 263
3 260 261 266
3 261 262 266
3 250 256 254
3 256 257 260
3 250 255 257
3 250 257 256
3 256 266 265
3 256 260 266
3 254 256 265
3 254 265 263
3 267 268 270
3 267 270 269
3 269 274 273
3 269 270 274
3 277 281 280
3 277 278 281
3 273 274 282
3 280 281 283
3 270 280 274
3 270 277 280
3 274 283 282
3 274 280 283
3 213 250 249
3 213 249 247
3 221 258 257
3 213 255 250
3 213 219 255
3 219 221 257
3 219 257 255
3 238 268 267
3 238 239 268
3 239 240 270
3 239 270 268
3 245 278 277
3 245 246 278
3 240 277 270
3 240 245 277
3 212 224 226
3 217 234 220
3 220 234 238
3 220 238 221
3 212 234 217
3 212 226 234
3 258 267 269
3 258 269 259
3 259 273 262
3 259 269 273
3 262 282 266
3 262 273 282
3 221 267 258
3 221 238 267
3 202 247 249
3 202 249 204
3 204 253 208
3 204 249 253
3 208 263 211
3 208 253 263
3 183 247 202
3 183 213 247
3 285 286 288
3 285 288 287
3 287 291 290
3 287 288 291
3 286 291 288
3 286 289 291
3 284 286 285
3 284 285 287
3 290 291 293
3 287 290 293
3 289 292 291
3 286 292 289
3 296 297 299
3 296 299 298
3 298 303 302
3 298 299 303
3 297 303 299
3 297 301 303
3 309 312 310
3 309 311 312
3 307 312 311
3 307 308 312
3 306 312 308
3 306 310 312
3 313 316 314
3 313 315 316
3 313 318 317
3 313 314 318
3 313 319 315
3 313 317 319
3 295 308 307
3 295 306 308
3 302 316 315
3 302 303 316
3 301 316 303
3 301 314 316
3 307 311 320
3 297 304 301
3 314 320 318
3 294 295 304
3 294 304 297
3 305 320 311
3 305 318 320
3 301 320 314
3 301 304 320
3 295 320 304
3 295 307 320
3 293 297 296
3 293 296 298
3 291 295 294
3 291 292 295
3 291 297 293
3 291 294 297
3 322 325 323
3 322 324 325
3 321 324 322
3 323 325 326
3 333 336 334
3 333 335 336
3 330 333 334
3 330 334 331
3 331 336 332
3 331 334 336
3 333 343 335
3 338 345 339
3 340 341 345
3 339 345 341
3 335 339 336
3 335 338 339
3 342 345 343
3 342 344 345
3 329 342 343
3 329 343 333
3 335 345 338
3 335 343 345
3 346 349 347
3 346 348 349
3 348 351 352
3 348 352 349
3 353 356 354
3 353 355 356
3 360 363 361
3 360 362 363
3 358 363 362
3 358 359 363
3 357 363 359
3 357 361 363
3 351 361 352
3 351 360 361
3 349 361 357
3 349 352 361
3 355 364 356
3 357 359 364
3 349 364 355
3 349 357 364
3 326 330 331
3 326 333 330
3 325 333 326
3 325 329 333
3 325 342 329
3 325 327 342
3 331 348 346
3 331 332 348
3 332 336 351
3 332 351 348
3 339 362 360
3 339 341 362
3 336 360 351
3 336 339 360
3 369 372 370
3 369 371 372
3 366 369 370
3 366 370 367
3 371 374 372
3 365 371 369
3 365 369 366
3 365 373 374
3 365 374 371
3 377 380 378
3 377 379 380
3 375 377 378
3 375 378 376
3 384 387 385
3 384 386 387
3 381 384 385
3 381 385 382
3 382 387 383
3 382 385 387
3 379 388 380
3 386 389 387
3 378 386 384
3 378 380 386
3 376 378 384
3 376 384 381
3 380 388 389
3 380 389 386
3 393 396 394
3 393 395 396
3 391 393 394
3 391 394 392
3 399 402 400
3 399 401 402
3 397 399 400
3 397 400 398
3 394 401 399
3 394 396 401
3 392 394 399
3 392 399 397
3 410 413 411
3 410 412 413
3 406 410 411
3 406 411 407
3 414 417 415
3 414 416 417
3 416 419 420
3 416 420 417
3 414 419 416
3 414 418 419
3 422 425 423
3 422 424 425
3 430 433 431
3 430 432 433
3 412 423 413
3 412 422 423
3 419 431 420
3 419 430 431
3 417 431 427
3 417 420 431
3 411 419 418
3 411 413 419
3 407 411 418
3 407 418 414
3 423 432 430
3 423 425 432
3 413 430 419
3 413 423 430
3 437 440 438
3 437 439 440
3 435 437 438
3 436 439 437
3 434 437 435
3 434 436 437
3 395 434 396
3 401 435 402
3 396 434 435
3 396 435 401
3 395 403 436
3 395 436 434
3 422 441 424
3 412 441 422
3 373 391 392
3 374 397 398
3 373 397 374
3 373 392 397
3 365 390 391
3 365 391 373
3 388 406 407
3 389 414 415
3 388 414 389
3 388 407 414
3 387 415 405
3 387 389 415
3 370 379 377
3 370 372 379
3 367 370 377
3 367 377 375
3 372 374 388
3 372 388 379
3 400 412 410
3 400 402 412
3 398 400 410
3 398 410 406
3 438 440 441
3 435 438 441
3 374 406 388
3 374 398 406
3 402 435 441
3 402 441 412
3 404 441 440
3 404 424 441
3 328 390 365
3 328 354 390
3 442 445 443
3 442 444 445
3 444 446 447
3 444 447 445
3 453 456 454
3 453 455 456
3 453 458 455
3 453 457 458
3 460 463 461
3 460 462 463
3 460 465 462
3 460 464 465
3 452 461 463
3 459 460 461
3 451 453 454
3 451 457 453
3 452 458 457
3 450 457 451
3 450 452 457
3 450 461 452
3 450 459 461
3 446 450 447
3 445 447 450
3 445 451 448
3 445 450 451
3 467 470 468
3 467 469 470
3 467 472 471
3 467 468 472
3 467 473 469
3 467 471 473
3 466 473 471
3 466 469 473
3 466 476 469
3 466 475 476
3 466 478 477
3 466 471 478
3 468 470 479
3 468 479 472
3 482 486 485
3 482 483 486
3 481 482 485
3 481 485 484
3 489 493 492
3 489 490 493
3 494 497 495
3 494 496 497
3 494 499 498
3 494 495 499
3 495 497 501
3 495 501 499
3 505 508 506
3 505 507 508
3 503 508 507
3 503 504 508
3 485 497 496
3 485 486 497
3 484 485 496
3 484 496 494
3 487 504 503
3 483 488 486
3 487 492 493
3 488 489 492
3 499 507 505
3 499 501 507
3 497 507 501
3 497 503 507
3 497 510 503
3 497 509 510
3 488 510 509
3 488 492 510
3 486 488 509
3 486 509 497
3 487 510 492
3 487 503 510
3 487 493 510
3 487 510 504
3 514 517 515
3 514 516 517
3 514 519 518
3 514 515 519
3 512 518 519
3 513 516 514
3 513 514 518
3 511 518 512
3 511 513 518
3 511 521 520
3 511 512 521
3 511 522 513
3 511 520 522
3 498 499 524
3 505 506 524
3 499 505 524
3 490 491 513
3 490 513 493
3 506 508 520
3 504 520 508
3 504 522 520
3 504 510 522
3 493 522 510
3 493 513 522
3 480 481 484
3 528 531 529
3 528 530 531
3 526 531 530
3 526 527 531
3 528 529 534
3 528 534 530
3 526 533 527
3 526 530 533
3 529 531 532
3 527 532 531
3 43 326 44
3 36 323 326
3 36 326 43
3 60 346 347
3 60 347 349
3 61 353 354
3 61 355 353
3 60 349 355
3 60 355 61
3 58 331 346
3 58 346 60
3 44 331 58
3 44 326 331
3 57 61 354
3 57 354 328
3 109 366 367
3 108 365 366
3 108 366 109
3 116 375 376
3 119 381 382
3 119 382 120
3 116 376 381
3 116 381 119
3 109 367 375
3 109 375 116
3 57 328 365
3 57 365 108
3 154 442 443
3 154 443 155
3 155 445 157
3 155 443 445
3 157 445 448
3 157 448 158
3 162 454 456
3 161 454 162
3 161 451 454
3 158 451 161
3 158 448 451
3 193 470 469
3 194 476 475
3 194 195 476
3 193 476 195
3 193 469 476
3 210 480 479
3 210 211 480
3 193 479 470
3 193 210 479
3 263 483 482
3 263 482 481
3 266 490 489
3 266 491 490
3 265 489 488
3 265 266 489
3 263 265 488
3 263 488 483
3 283 517 516
3 283 515 517
3 282 516 513
3 282 283 516
3 266 513 491
3 266 282 513
3 211 481 480
3 211 263 481
3 309 310 532
3 309 532 311
3 317 318 533
3 305 532 527
3 305 311 532
3 305 533 318
3 305 527 533
3 15 16 165
3 15 165 164
3 16 169 165
3 16 18 169
3 29 177 176
3 29 30 183
3 29 183 177
3 18 29 176
3 18 176 169
3 85 86 214
3 85 214 213
3 82 212 214
3 82 214 86
3 102 223 222
3 102 222 224
3 103 229 228
3 102 103 228
3 102 228 223
3 82 102 224
3 82 224 212
3 30 85 213
3 30 213 183
3 340 472 341
3 340 471 472
3 344 478 345
3 344 477 478
3 340 478 471
3 340 345 478
3 358 479 359
3 358 362 479
3 359 480 364
3 359 479 480
3 341 479 362
3 341 472 479
3 439 524 440
3 436 524 439
3 424 520 425
3 432 521 433
3 429 433 521
3 425 521 432
3 425 520 521
3 404 520 424
3 404 506 520
3 403 498 524
3 403 524 436
3 404 524 506
3 404 440 524
3 136 137 284
3 133 136 284
3 141 142 292
3 141 292 286
3 137 286 284
3 137 141 286
3 462 534 463
3 455 532 456
3 455 458 532
3 452 532 458
3 452 529 532
3 452 534 529
3 452 463 534
3 79 126 128
3 79 128 80
3 77 80 128
3 77 128 124
3 66 77 124
3 66 124 122
3 99 131 101
3 103 132 133
3 103 134 132
3 101 131 134
3 101 134 103
3 113 147 143
3 118 120 154
3 118 154 151
3 113 118 151
3 113 151 147
3 66 122 131
3 66 131 99
3 79 113 143
3 79 143 126
3 231 284 233
3 229 284 231
3 244 293 246
3 242 293 244
3 235 287 293
3 235 293 242
3 233 287 235
3 233 284 287
3 278 302 281
3 278 298 302
3 283 319 317
3 283 315 319
3 281 315 283
3 281 302 315
3 246 298 278
3 246 293 298
3 382 444 442
3 382 383 444
3 383 387 446
3 383 446 444
3 415 417 459
3 431 465 464
3 431 433 465
3 427 431 464
3 427 464 460
3 429 465 433
3 429 462 465
3 417 460 459
3 417 427 460
3 405 415 459
3 405 459 450
3 387 450 446
3 387 405 450
3 515 533 519
3 512 533 530
3 512 519 533
3 512 534 521
3 512 530 534
3 103 133 284
3 103 284 229
3 429 534 462
3 429 521 534
3 120 382 442
3 120 442 154
3 283 533 515
3 283 317 533
3 162 532 310
3 162 456 532
